<mxfile host="app.diagrams.net" modified="2024-06-07T18:07:34.684Z" agent="Mozilla/5.0 (Windows NT 10.0; Win64; x64) AppleWebKit/537.36 (KHTML, like Gecko) Chrome/125.0.0.0 Safari/537.36" etag="QkHIFIu4aIVtYO7PrSEh" version="24.4.6" type="onedrive">
  <diagram name="Trang-1" id="nbeNxIkKPZL1l8hbyxrk">
    <mxGraphModel grid="1" page="1" gridSize="10" guides="1" tooltips="1" connect="1" arrows="1" fold="1" pageScale="1" pageWidth="827" pageHeight="1169" math="0" shadow="0">
      <root>
        <mxCell id="0" />
        <mxCell id="1" parent="0" />
        <mxCell id="r9IzJmFW5y46hCvMNoL_-2" value="User" style="rounded=1;arcSize=10;whiteSpace=wrap;html=1;align=center;fillColor=#6666FF;fontColor=#ffffff;strokeColor=none;fillStyle=solid;" vertex="1" parent="1">
          <mxGeometry x="170" y="330" width="100" height="40" as="geometry" />
        </mxCell>
        <mxCell id="r9IzJmFW5y46hCvMNoL_-3" value="email" style="ellipse;whiteSpace=wrap;html=1;align=center;fillColor=#9999ff;fontColor=#ffffff;strokeColor=none;fillStyle=solid;" vertex="1" parent="1">
          <mxGeometry x="280" y="230" width="100" height="40" as="geometry" />
        </mxCell>
        <mxCell id="r9IzJmFW5y46hCvMNoL_-4" value="user id" style="ellipse;whiteSpace=wrap;html=1;align=center;fontStyle=4;fillColor=#9999ff;strokeColor=none;fillStyle=solid;fontColor=#FFFFFF;horizontal=1;dashed=1;dashPattern=12 12;" vertex="1" parent="1">
          <mxGeometry x="170" y="210" width="100" height="40" as="geometry" />
        </mxCell>
        <mxCell id="r9IzJmFW5y46hCvMNoL_-5" value="Fullname&amp;nbsp;" style="ellipse;whiteSpace=wrap;html=1;align=center;fillColor=#9999ff;strokeColor=none;fillStyle=solid;fontColor=#FFFFFF;" vertex="1" parent="1">
          <mxGeometry x="-10" y="270" width="100" height="40" as="geometry" />
        </mxCell>
        <mxCell id="r9IzJmFW5y46hCvMNoL_-6" value="SecurityQuestion" style="ellipse;whiteSpace=wrap;html=1;align=center;fillColor=#9999ff;strokeColor=none;fillStyle=solid;fontColor=#FFFFFF;" vertex="1" parent="1">
          <mxGeometry x="280" y="440" width="100" height="40" as="geometry" />
        </mxCell>
        <mxCell id="r9IzJmFW5y46hCvMNoL_-7" value="Address&amp;nbsp;" style="ellipse;whiteSpace=wrap;html=1;align=center;fillColor=#9999ff;strokeColor=none;fillStyle=solid;fontColor=#FFFFFF;" vertex="1" parent="1">
          <mxGeometry x="170" y="460" width="100" height="40" as="geometry" />
        </mxCell>
        <mxCell id="r9IzJmFW5y46hCvMNoL_-8" value="PhoneNumber" style="ellipse;whiteSpace=wrap;html=1;align=center;fillColor=#9999ff;strokeColor=none;fillStyle=solid;fontColor=#FFFFFF;" vertex="1" parent="1">
          <mxGeometry x="60" y="440" width="100" height="40" as="geometry" />
        </mxCell>
        <mxCell id="r9IzJmFW5y46hCvMNoL_-9" value="BirthDate" style="ellipse;whiteSpace=wrap;html=1;align=center;fillColor=#9999ff;strokeColor=none;fillStyle=solid;fontColor=#FFFFFF;" vertex="1" parent="1">
          <mxGeometry x="-10" y="390" width="100" height="40" as="geometry" />
        </mxCell>
        <mxCell id="r9IzJmFW5y46hCvMNoL_-10" value="sex" style="ellipse;whiteSpace=wrap;html=1;align=center;fillColor=#9999ff;strokeColor=none;fillStyle=solid;fontColor=#FFFFFF;" vertex="1" parent="1">
          <mxGeometry x="-40" y="330" width="100" height="40" as="geometry" />
        </mxCell>
        <mxCell id="r9IzJmFW5y46hCvMNoL_-11" value="Password" style="ellipse;whiteSpace=wrap;html=1;align=center;fillColor=#9999ff;strokeColor=none;fillStyle=solid;fontColor=#FFFFFF;" vertex="1" parent="1">
          <mxGeometry x="60" y="230" width="100" height="40" as="geometry" />
        </mxCell>
        <mxCell id="r9IzJmFW5y46hCvMNoL_-14" value="CreatedAt" style="ellipse;whiteSpace=wrap;html=1;align=center;fillColor=#9999ff;strokeColor=none;fillStyle=solid;fontColor=#FFFFFF;" vertex="1" parent="1">
          <mxGeometry x="380" y="330" width="100" height="40" as="geometry" />
        </mxCell>
        <mxCell id="r9IzJmFW5y46hCvMNoL_-15" value="Answer" style="ellipse;whiteSpace=wrap;html=1;align=center;fillColor=#9999ff;strokeColor=none;fillStyle=solid;fontColor=#FFFFFF;" vertex="1" parent="1">
          <mxGeometry x="350" y="390" width="100" height="40" as="geometry" />
        </mxCell>
        <mxCell id="r9IzJmFW5y46hCvMNoL_-16" value="IsApproved" style="ellipse;whiteSpace=wrap;html=1;align=center;fillColor=#9999ff;strokeColor=none;fillStyle=solid;fontColor=#FFFFFF;" vertex="1" parent="1">
          <mxGeometry x="350" y="270" width="100" height="40" as="geometry" />
        </mxCell>
        <mxCell id="r9IzJmFW5y46hCvMNoL_-26" value="" style="endArrow=none;html=1;rounded=0;entryX=0.5;entryY=1;entryDx=0;entryDy=0;exitX=0.5;exitY=0;exitDx=0;exitDy=0;strokeColor=#9999ff;" edge="1" parent="1" source="r9IzJmFW5y46hCvMNoL_-2" target="r9IzJmFW5y46hCvMNoL_-4">
          <mxGeometry relative="1" as="geometry">
            <mxPoint x="330" y="420" as="sourcePoint" />
            <mxPoint x="490" y="420" as="targetPoint" />
          </mxGeometry>
        </mxCell>
        <mxCell id="r9IzJmFW5y46hCvMNoL_-27" value="" style="endArrow=none;html=1;rounded=0;entryX=0;entryY=1;entryDx=0;entryDy=0;exitX=0.75;exitY=0;exitDx=0;exitDy=0;strokeColor=#9999ff;" edge="1" parent="1" source="r9IzJmFW5y46hCvMNoL_-2" target="r9IzJmFW5y46hCvMNoL_-3">
          <mxGeometry relative="1" as="geometry">
            <mxPoint x="250" y="330" as="sourcePoint" />
            <mxPoint x="230" y="260" as="targetPoint" />
          </mxGeometry>
        </mxCell>
        <mxCell id="r9IzJmFW5y46hCvMNoL_-28" value="" style="endArrow=none;html=1;rounded=0;entryX=0;entryY=0.5;entryDx=0;entryDy=0;exitX=1;exitY=0.25;exitDx=0;exitDy=0;strokeColor=#9999ff;" edge="1" parent="1" source="r9IzJmFW5y46hCvMNoL_-2" target="r9IzJmFW5y46hCvMNoL_-16">
          <mxGeometry relative="1" as="geometry">
            <mxPoint x="240" y="350" as="sourcePoint" />
            <mxPoint x="240" y="270" as="targetPoint" />
          </mxGeometry>
        </mxCell>
        <mxCell id="r9IzJmFW5y46hCvMNoL_-29" value="" style="endArrow=none;html=1;rounded=0;entryX=0;entryY=0.5;entryDx=0;entryDy=0;exitX=1;exitY=0.5;exitDx=0;exitDy=0;strokeColor=#9999ff;" edge="1" parent="1" source="r9IzJmFW5y46hCvMNoL_-2" target="r9IzJmFW5y46hCvMNoL_-14">
          <mxGeometry relative="1" as="geometry">
            <mxPoint x="250" y="360" as="sourcePoint" />
            <mxPoint x="250" y="280" as="targetPoint" />
          </mxGeometry>
        </mxCell>
        <mxCell id="r9IzJmFW5y46hCvMNoL_-30" value="" style="endArrow=none;html=1;rounded=0;entryX=0;entryY=0.5;entryDx=0;entryDy=0;exitX=1;exitY=0.75;exitDx=0;exitDy=0;strokeColor=#9999ff;" edge="1" parent="1" source="r9IzJmFW5y46hCvMNoL_-2" target="r9IzJmFW5y46hCvMNoL_-15">
          <mxGeometry relative="1" as="geometry">
            <mxPoint x="260" y="370" as="sourcePoint" />
            <mxPoint x="260" y="290" as="targetPoint" />
          </mxGeometry>
        </mxCell>
        <mxCell id="r9IzJmFW5y46hCvMNoL_-31" value="" style="endArrow=none;html=1;rounded=0;exitX=0.75;exitY=1;exitDx=0;exitDy=0;strokeColor=#9999ff;" edge="1" parent="1" source="r9IzJmFW5y46hCvMNoL_-2" target="r9IzJmFW5y46hCvMNoL_-6">
          <mxGeometry relative="1" as="geometry">
            <mxPoint x="256" y="374" as="sourcePoint" />
            <mxPoint x="270" y="300" as="targetPoint" />
          </mxGeometry>
        </mxCell>
        <mxCell id="r9IzJmFW5y46hCvMNoL_-32" value="" style="endArrow=none;html=1;rounded=0;entryX=0.5;entryY=1;entryDx=0;entryDy=0;exitX=0.5;exitY=0;exitDx=0;exitDy=0;strokeColor=#9999ff;" edge="1" parent="1" source="r9IzJmFW5y46hCvMNoL_-7" target="r9IzJmFW5y46hCvMNoL_-2">
          <mxGeometry relative="1" as="geometry">
            <mxPoint x="280" y="390" as="sourcePoint" />
            <mxPoint x="280" y="310" as="targetPoint" />
          </mxGeometry>
        </mxCell>
        <mxCell id="r9IzJmFW5y46hCvMNoL_-33" value="" style="endArrow=none;html=1;rounded=0;entryX=0.25;entryY=1;entryDx=0;entryDy=0;exitX=1;exitY=0;exitDx=0;exitDy=0;strokeColor=#9999ff;" edge="1" parent="1" source="r9IzJmFW5y46hCvMNoL_-8" target="r9IzJmFW5y46hCvMNoL_-2">
          <mxGeometry relative="1" as="geometry">
            <mxPoint x="290" y="400" as="sourcePoint" />
            <mxPoint x="290" y="320" as="targetPoint" />
          </mxGeometry>
        </mxCell>
        <mxCell id="r9IzJmFW5y46hCvMNoL_-34" value="" style="endArrow=none;html=1;rounded=0;entryX=1;entryY=1;entryDx=0;entryDy=0;exitX=0.25;exitY=0;exitDx=0;exitDy=0;strokeColor=#9999ff;" edge="1" parent="1" source="r9IzJmFW5y46hCvMNoL_-2" target="r9IzJmFW5y46hCvMNoL_-11">
          <mxGeometry relative="1" as="geometry">
            <mxPoint x="300" y="410" as="sourcePoint" />
            <mxPoint x="300" y="330" as="targetPoint" />
          </mxGeometry>
        </mxCell>
        <mxCell id="r9IzJmFW5y46hCvMNoL_-35" value="" style="endArrow=none;html=1;rounded=0;entryX=1;entryY=0.5;entryDx=0;entryDy=0;exitX=0;exitY=0.5;exitDx=0;exitDy=0;strokeColor=#9999ff;" edge="1" parent="1" source="r9IzJmFW5y46hCvMNoL_-2" target="r9IzJmFW5y46hCvMNoL_-10">
          <mxGeometry relative="1" as="geometry">
            <mxPoint x="310" y="420" as="sourcePoint" />
            <mxPoint x="310" y="340" as="targetPoint" />
          </mxGeometry>
        </mxCell>
        <mxCell id="r9IzJmFW5y46hCvMNoL_-36" value="" style="endArrow=none;html=1;rounded=0;entryX=1;entryY=0.5;entryDx=0;entryDy=0;exitX=0;exitY=0.25;exitDx=0;exitDy=0;strokeColor=#9999ff;" edge="1" parent="1" source="r9IzJmFW5y46hCvMNoL_-2" target="r9IzJmFW5y46hCvMNoL_-5">
          <mxGeometry relative="1" as="geometry">
            <mxPoint x="320" y="430" as="sourcePoint" />
            <mxPoint x="320" y="350" as="targetPoint" />
          </mxGeometry>
        </mxCell>
        <mxCell id="r9IzJmFW5y46hCvMNoL_-37" value="" style="endArrow=none;html=1;rounded=0;entryX=1;entryY=0.5;entryDx=0;entryDy=0;exitX=0;exitY=0.75;exitDx=0;exitDy=0;strokeColor=#9999ff;" edge="1" parent="1" source="r9IzJmFW5y46hCvMNoL_-2" target="r9IzJmFW5y46hCvMNoL_-9">
          <mxGeometry relative="1" as="geometry">
            <mxPoint x="330" y="440" as="sourcePoint" />
            <mxPoint x="330" y="360" as="targetPoint" />
          </mxGeometry>
        </mxCell>
        <mxCell id="r9IzJmFW5y46hCvMNoL_-39" value="Cart item" style="shape=associativeEntity;whiteSpace=wrap;html=1;align=center;strokeColor=#9999ff;fillColor=#6666ff;fontColor=#f1f3f4;fillStyle=solid;" vertex="1" parent="1">
          <mxGeometry x="300" y="60" width="100" height="40" as="geometry" />
        </mxCell>
        <mxCell id="r9IzJmFW5y46hCvMNoL_-40" value="" style="endArrow=none;html=1;rounded=0;entryX=0.622;entryY=-0.004;entryDx=0;entryDy=0;entryPerimeter=0;exitX=0.5;exitY=1;exitDx=0;exitDy=0;strokeWidth=2;strokeColor=#6666ff;" edge="1" parent="1" source="r9IzJmFW5y46hCvMNoL_-39" target="r9IzJmFW5y46hCvMNoL_-2">
          <mxGeometry relative="1" as="geometry">
            <mxPoint x="250" y="260" as="sourcePoint" />
            <mxPoint x="410" y="260" as="targetPoint" />
          </mxGeometry>
        </mxCell>
        <mxCell id="r9IzJmFW5y46hCvMNoL_-41" value="1" style="resizable=0;html=1;whiteSpace=wrap;align=right;verticalAlign=bottom;fontColor=#6666ff;" connectable="0" vertex="1" parent="r9IzJmFW5y46hCvMNoL_-40">
          <mxGeometry x="1" relative="1" as="geometry" />
        </mxCell>
        <mxCell id="r9IzJmFW5y46hCvMNoL_-47" value="N" style="edgeLabel;html=1;align=center;verticalAlign=middle;resizable=0;points=[];fontColor=#6666ff;" vertex="1" connectable="0" parent="r9IzJmFW5y46hCvMNoL_-40">
          <mxGeometry x="-0.8737" y="-2" relative="1" as="geometry">
            <mxPoint x="15" y="-6" as="offset" />
          </mxGeometry>
        </mxCell>
        <mxCell id="r9IzJmFW5y46hCvMNoL_-42" value="id" style="ellipse;whiteSpace=wrap;html=1;align=center;fontStyle=4;strokeColor=none;fillColor=#9999ff;fontColor=#FFFFFF;" vertex="1" parent="1">
          <mxGeometry x="300" y="-20" width="100" height="40" as="geometry" />
        </mxCell>
        <mxCell id="r9IzJmFW5y46hCvMNoL_-43" value="Quantity" style="ellipse;whiteSpace=wrap;html=1;align=center;fillColor=#9999ff;strokeColor=none;fontColor=#FFFFFF;" vertex="1" parent="1">
          <mxGeometry x="150" y="60" width="100" height="40" as="geometry" />
        </mxCell>
        <mxCell id="r9IzJmFW5y46hCvMNoL_-44" value="" style="endArrow=none;html=1;rounded=0;entryX=0.5;entryY=1;entryDx=0;entryDy=0;exitX=0.5;exitY=0;exitDx=0;exitDy=0;strokeColor=#9999ff;" edge="1" parent="1" source="r9IzJmFW5y46hCvMNoL_-39" target="r9IzJmFW5y46hCvMNoL_-42">
          <mxGeometry relative="1" as="geometry">
            <mxPoint x="220" y="150" as="sourcePoint" />
            <mxPoint x="380" y="150" as="targetPoint" />
          </mxGeometry>
        </mxCell>
        <mxCell id="r9IzJmFW5y46hCvMNoL_-45" value="" style="endArrow=none;html=1;rounded=0;entryX=1;entryY=0.5;entryDx=0;entryDy=0;exitX=0;exitY=0.5;exitDx=0;exitDy=0;strokeColor=#9999ff;" edge="1" parent="1" source="r9IzJmFW5y46hCvMNoL_-39" target="r9IzJmFW5y46hCvMNoL_-43">
          <mxGeometry relative="1" as="geometry">
            <mxPoint x="360" y="70" as="sourcePoint" />
            <mxPoint x="360" y="30" as="targetPoint" />
          </mxGeometry>
        </mxCell>
        <mxCell id="r9IzJmFW5y46hCvMNoL_-46" value="Product" style="rounded=1;arcSize=10;whiteSpace=wrap;html=1;align=center;strokeColor=none;fillColor=#6666ff;fontColor=#ffffff;" vertex="1" parent="1">
          <mxGeometry x="685" y="60" width="100" height="40" as="geometry" />
        </mxCell>
        <mxCell id="r9IzJmFW5y46hCvMNoL_-48" value="" style="endArrow=none;html=1;rounded=0;exitX=1;exitY=0.5;exitDx=0;exitDy=0;entryX=0;entryY=0.5;entryDx=0;entryDy=0;strokeWidth=2;strokeColor=#6666ff;" edge="1" parent="1" source="r9IzJmFW5y46hCvMNoL_-39" target="r9IzJmFW5y46hCvMNoL_-46">
          <mxGeometry relative="1" as="geometry">
            <mxPoint x="665" y="210" as="sourcePoint" />
            <mxPoint x="825" y="210" as="targetPoint" />
          </mxGeometry>
        </mxCell>
        <mxCell id="r9IzJmFW5y46hCvMNoL_-49" value="N" style="resizable=0;html=1;whiteSpace=wrap;align=left;verticalAlign=bottom;fontColor=#6666ff;" connectable="0" vertex="1" parent="r9IzJmFW5y46hCvMNoL_-48">
          <mxGeometry x="-1" relative="1" as="geometry" />
        </mxCell>
        <mxCell id="r9IzJmFW5y46hCvMNoL_-50" value="1" style="resizable=0;html=1;whiteSpace=wrap;align=right;verticalAlign=bottom;fontColor=#6666ff;" connectable="0" vertex="1" parent="r9IzJmFW5y46hCvMNoL_-48">
          <mxGeometry x="1" relative="1" as="geometry" />
        </mxCell>
        <mxCell id="r9IzJmFW5y46hCvMNoL_-51" value="id" style="ellipse;whiteSpace=wrap;html=1;align=center;fontStyle=4;strokeColor=none;fillColor=#9999ff;fontColor=#FFFFFF;" vertex="1" parent="1">
          <mxGeometry x="685" y="-20" width="100" height="40" as="geometry" />
        </mxCell>
        <mxCell id="r9IzJmFW5y46hCvMNoL_-52" value="Name" style="ellipse;whiteSpace=wrap;html=1;align=center;fillColor=#9999ff;strokeColor=none;fillStyle=solid;fontColor=#FFFFFF;" vertex="1" parent="1">
          <mxGeometry x="755" y="140" width="100" height="40" as="geometry" />
        </mxCell>
        <mxCell id="r9IzJmFW5y46hCvMNoL_-53" value="Price" style="ellipse;whiteSpace=wrap;html=1;align=center;fillColor=#9999ff;strokeColor=none;fillStyle=solid;fontColor=#FFFFFF;" vertex="1" parent="1">
          <mxGeometry x="615" y="140" width="100" height="40" as="geometry" />
        </mxCell>
        <mxCell id="r9IzJmFW5y46hCvMNoL_-54" value="" style="endArrow=none;html=1;rounded=0;entryX=0.5;entryY=1;entryDx=0;entryDy=0;exitX=0.5;exitY=0;exitDx=0;exitDy=0;strokeColor=#9999ff;" edge="1" parent="1" source="r9IzJmFW5y46hCvMNoL_-46" target="r9IzJmFW5y46hCvMNoL_-51">
          <mxGeometry relative="1" as="geometry">
            <mxPoint x="405" y="70" as="sourcePoint" />
            <mxPoint x="405" y="30" as="targetPoint" />
          </mxGeometry>
        </mxCell>
        <mxCell id="r9IzJmFW5y46hCvMNoL_-55" value="" style="endArrow=none;html=1;rounded=0;entryX=0.25;entryY=1;entryDx=0;entryDy=0;exitX=0.672;exitY=0.02;exitDx=0;exitDy=0;exitPerimeter=0;strokeColor=#9999ff;" edge="1" parent="1" source="r9IzJmFW5y46hCvMNoL_-53" target="r9IzJmFW5y46hCvMNoL_-46">
          <mxGeometry relative="1" as="geometry">
            <mxPoint x="745" y="70" as="sourcePoint" />
            <mxPoint x="745" y="30" as="targetPoint" />
          </mxGeometry>
        </mxCell>
        <mxCell id="r9IzJmFW5y46hCvMNoL_-56" value="" style="endArrow=none;html=1;rounded=0;entryX=0.75;entryY=1;entryDx=0;entryDy=0;exitX=0.336;exitY=0.02;exitDx=0;exitDy=0;exitPerimeter=0;strokeColor=#9999ff;" edge="1" parent="1" source="r9IzJmFW5y46hCvMNoL_-52" target="r9IzJmFW5y46hCvMNoL_-46">
          <mxGeometry relative="1" as="geometry">
            <mxPoint x="755" y="80" as="sourcePoint" />
            <mxPoint x="755" y="40" as="targetPoint" />
          </mxGeometry>
        </mxCell>
        <mxCell id="r9IzJmFW5y46hCvMNoL_-57" value="Category" style="rounded=1;arcSize=10;whiteSpace=wrap;html=1;align=center;strokeColor=none;fillColor=#6666ff;fontColor=#ffffff;" vertex="1" parent="1">
          <mxGeometry x="495" y="-130" width="100" height="40" as="geometry" />
        </mxCell>
        <mxCell id="r9IzJmFW5y46hCvMNoL_-60" value="Category" style="rounded=1;arcSize=10;whiteSpace=wrap;html=1;align=center;strokeColor=none;fillColor=#6666ff;fontColor=#ffffff;" vertex="1" parent="1">
          <mxGeometry x="495" y="-130" width="100" height="40" as="geometry" />
        </mxCell>
        <mxCell id="r9IzJmFW5y46hCvMNoL_-62" value="Name" style="ellipse;whiteSpace=wrap;html=1;align=center;fillColor=#9999ff;strokeColor=none;fillStyle=solid;fontColor=#FFFFFF;" vertex="1" parent="1">
          <mxGeometry x="565" y="-210" width="100" height="40" as="geometry" />
        </mxCell>
        <mxCell id="r9IzJmFW5y46hCvMNoL_-63" value="id" style="ellipse;whiteSpace=wrap;html=1;align=center;fontStyle=4;strokeColor=none;fillColor=#9999ff;fontColor=#FFFFFF;" vertex="1" parent="1">
          <mxGeometry x="425" y="-210" width="100" height="40" as="geometry" />
        </mxCell>
        <mxCell id="r9IzJmFW5y46hCvMNoL_-64" value="" style="endArrow=none;html=1;rounded=0;entryX=0.302;entryY=0.938;entryDx=0;entryDy=0;exitX=0.75;exitY=0;exitDx=0;exitDy=0;entryPerimeter=0;strokeColor=#9999ff;" edge="1" parent="1" source="r9IzJmFW5y46hCvMNoL_-60" target="r9IzJmFW5y46hCvMNoL_-62">
          <mxGeometry relative="1" as="geometry">
            <mxPoint x="725" y="30" as="sourcePoint" />
            <mxPoint x="725" y="-10" as="targetPoint" />
          </mxGeometry>
        </mxCell>
        <mxCell id="r9IzJmFW5y46hCvMNoL_-65" value="" style="endArrow=none;html=1;rounded=0;entryX=0.706;entryY=0.967;entryDx=0;entryDy=0;exitX=0.25;exitY=0;exitDx=0;exitDy=0;entryPerimeter=0;strokeColor=#9999ff;" edge="1" parent="1" source="r9IzJmFW5y46hCvMNoL_-60" target="r9IzJmFW5y46hCvMNoL_-63">
          <mxGeometry relative="1" as="geometry">
            <mxPoint x="580" y="-120" as="sourcePoint" />
            <mxPoint x="605" y="-162" as="targetPoint" />
          </mxGeometry>
        </mxCell>
        <mxCell id="r9IzJmFW5y46hCvMNoL_-69" value="includes" style="shape=rhombus;perimeter=rhombusPerimeter;whiteSpace=wrap;html=1;align=center;fillColor=none;strokeColor=#6666ff;fontColor=#6666ff;" vertex="1" parent="1">
          <mxGeometry x="555" y="-40" width="95" height="47.5" as="geometry" />
        </mxCell>
        <mxCell id="r9IzJmFW5y46hCvMNoL_-70" value="" style="endArrow=none;html=1;rounded=0;entryX=0.5;entryY=1;entryDx=0;entryDy=0;exitX=0;exitY=0.5;exitDx=0;exitDy=0;strokeWidth=2;strokeColor=#6666ff;" edge="1" parent="1" source="r9IzJmFW5y46hCvMNoL_-69" target="r9IzJmFW5y46hCvMNoL_-60">
          <mxGeometry relative="1" as="geometry">
            <mxPoint x="665" as="sourcePoint" />
            <mxPoint x="825" as="targetPoint" />
          </mxGeometry>
        </mxCell>
        <mxCell id="r9IzJmFW5y46hCvMNoL_-71" value="1" style="resizable=0;html=1;whiteSpace=wrap;align=right;verticalAlign=bottom;fontColor=#6666ff;" connectable="0" vertex="1" parent="r9IzJmFW5y46hCvMNoL_-70">
          <mxGeometry x="1" relative="1" as="geometry">
            <mxPoint x="-1" y="16" as="offset" />
          </mxGeometry>
        </mxCell>
        <mxCell id="r9IzJmFW5y46hCvMNoL_-72" value="" style="endArrow=none;html=1;rounded=0;entryX=0;entryY=0;entryDx=0;entryDy=0;exitX=1;exitY=0.5;exitDx=0;exitDy=0;strokeWidth=2;strokeColor=#6666ff;" edge="1" parent="1" source="r9IzJmFW5y46hCvMNoL_-69" target="r9IzJmFW5y46hCvMNoL_-46">
          <mxGeometry relative="1" as="geometry">
            <mxPoint x="565" y="-6" as="sourcePoint" />
            <mxPoint x="555" y="-80" as="targetPoint" />
          </mxGeometry>
        </mxCell>
        <mxCell id="r9IzJmFW5y46hCvMNoL_-73" value="N" style="resizable=0;html=1;whiteSpace=wrap;align=right;verticalAlign=bottom;fontColor=#6666ff;" connectable="0" vertex="1" parent="r9IzJmFW5y46hCvMNoL_-72">
          <mxGeometry x="1" relative="1" as="geometry">
            <mxPoint x="12" y="2" as="offset" />
          </mxGeometry>
        </mxCell>
        <mxCell id="r9IzJmFW5y46hCvMNoL_-74" value="Order details" style="shape=associativeEntity;whiteSpace=wrap;html=1;align=center;strokeColor=#9999ff;fillColor=#6666ff;fontColor=#f1f3f4;fillStyle=solid;" vertex="1" parent="1">
          <mxGeometry x="1055" y="60" width="100" height="40" as="geometry" />
        </mxCell>
        <mxCell id="r9IzJmFW5y46hCvMNoL_-75" value="id" style="ellipse;whiteSpace=wrap;html=1;align=center;fontStyle=4;strokeColor=none;fillColor=#9999ff;fontColor=#FFFFFF;" vertex="1" parent="1">
          <mxGeometry x="945" width="100" height="40" as="geometry" />
        </mxCell>
        <mxCell id="r9IzJmFW5y46hCvMNoL_-76" value="Quantity" style="ellipse;whiteSpace=wrap;html=1;align=center;fillColor=#9999ff;strokeColor=none;fontColor=#FFFFFF;" vertex="1" parent="1">
          <mxGeometry x="1055" y="-20" width="100" height="40" as="geometry" />
        </mxCell>
        <mxCell id="r9IzJmFW5y46hCvMNoL_-77" value="unit price" style="ellipse;whiteSpace=wrap;html=1;align=center;fillColor=#9999ff;strokeColor=none;fontColor=#FFFFFF;" vertex="1" parent="1">
          <mxGeometry x="1165" width="100" height="40" as="geometry" />
        </mxCell>
        <mxCell id="r9IzJmFW5y46hCvMNoL_-78" value="total amount" style="ellipse;whiteSpace=wrap;html=1;align=center;fillColor=#9999ff;strokeColor=none;fontColor=#FFFFFF;" vertex="1" parent="1">
          <mxGeometry x="1225" y="60" width="100" height="40" as="geometry" />
        </mxCell>
        <mxCell id="r9IzJmFW5y46hCvMNoL_-80" value="" style="endArrow=none;html=1;rounded=0;entryX=1;entryY=1;entryDx=0;entryDy=0;exitX=0;exitY=0;exitDx=0;exitDy=0;strokeColor=#9999ff;" edge="1" parent="1" source="r9IzJmFW5y46hCvMNoL_-74" target="r9IzJmFW5y46hCvMNoL_-75">
          <mxGeometry relative="1" as="geometry">
            <mxPoint x="745" y="70" as="sourcePoint" />
            <mxPoint x="745" y="30" as="targetPoint" />
          </mxGeometry>
        </mxCell>
        <mxCell id="r9IzJmFW5y46hCvMNoL_-81" value="" style="endArrow=none;html=1;rounded=0;entryX=0.5;entryY=1;entryDx=0;entryDy=0;exitX=0.5;exitY=0;exitDx=0;exitDy=0;strokeColor=#9999ff;" edge="1" parent="1" source="r9IzJmFW5y46hCvMNoL_-74" target="r9IzJmFW5y46hCvMNoL_-76">
          <mxGeometry relative="1" as="geometry">
            <mxPoint x="755" y="80" as="sourcePoint" />
            <mxPoint x="755" y="40" as="targetPoint" />
          </mxGeometry>
        </mxCell>
        <mxCell id="r9IzJmFW5y46hCvMNoL_-82" value="" style="endArrow=none;html=1;rounded=0;entryX=0;entryY=1;entryDx=0;entryDy=0;exitX=1;exitY=0;exitDx=0;exitDy=0;strokeColor=#9999ff;" edge="1" parent="1" source="r9IzJmFW5y46hCvMNoL_-74" target="r9IzJmFW5y46hCvMNoL_-77">
          <mxGeometry relative="1" as="geometry">
            <mxPoint x="765" y="90" as="sourcePoint" />
            <mxPoint x="765" y="50" as="targetPoint" />
          </mxGeometry>
        </mxCell>
        <mxCell id="r9IzJmFW5y46hCvMNoL_-83" value="" style="endArrow=none;html=1;rounded=0;entryX=0;entryY=0.5;entryDx=0;entryDy=0;exitX=1;exitY=0.5;exitDx=0;exitDy=0;strokeColor=#9999ff;" edge="1" parent="1" source="r9IzJmFW5y46hCvMNoL_-74" target="r9IzJmFW5y46hCvMNoL_-78">
          <mxGeometry relative="1" as="geometry">
            <mxPoint x="1165" y="70" as="sourcePoint" />
            <mxPoint x="1190" y="44" as="targetPoint" />
          </mxGeometry>
        </mxCell>
        <mxCell id="r9IzJmFW5y46hCvMNoL_-86" value="" style="endArrow=none;html=1;rounded=0;exitX=0;exitY=0.5;exitDx=0;exitDy=0;entryX=1;entryY=0.5;entryDx=0;entryDy=0;strokeWidth=2;strokeColor=#6666ff;" edge="1" parent="1" source="r9IzJmFW5y46hCvMNoL_-74" target="r9IzJmFW5y46hCvMNoL_-46">
          <mxGeometry relative="1" as="geometry">
            <mxPoint x="455" y="90" as="sourcePoint" />
            <mxPoint x="695" y="90" as="targetPoint" />
          </mxGeometry>
        </mxCell>
        <mxCell id="r9IzJmFW5y46hCvMNoL_-87" value="N" style="resizable=0;html=1;whiteSpace=wrap;align=left;verticalAlign=bottom;fontColor=#6666ff;" connectable="0" vertex="1" parent="r9IzJmFW5y46hCvMNoL_-86">
          <mxGeometry x="-1" relative="1" as="geometry" />
        </mxCell>
        <mxCell id="r9IzJmFW5y46hCvMNoL_-88" value="1" style="resizable=0;html=1;whiteSpace=wrap;align=right;verticalAlign=bottom;fontColor=#6666ff;" connectable="0" vertex="1" parent="r9IzJmFW5y46hCvMNoL_-86">
          <mxGeometry x="1" relative="1" as="geometry" />
        </mxCell>
        <mxCell id="r9IzJmFW5y46hCvMNoL_-90" value="1" style="resizable=0;html=1;whiteSpace=wrap;align=right;verticalAlign=bottom;fontColor=#6666ff;" connectable="0" vertex="1" parent="1">
          <mxGeometry x="695" y="90" as="geometry" />
        </mxCell>
        <mxCell id="r9IzJmFW5y46hCvMNoL_-91" value="1" style="resizable=0;html=1;whiteSpace=wrap;align=right;verticalAlign=bottom;fontColor=#6666ff;" connectable="0" vertex="1" parent="1">
          <mxGeometry x="795" y="80" as="geometry" />
        </mxCell>
        <mxCell id="r9IzJmFW5y46hCvMNoL_-92" value="N" style="resizable=0;html=1;whiteSpace=wrap;align=right;verticalAlign=bottom;fontColor=#6666ff;" connectable="0" vertex="1" parent="1">
          <mxGeometry x="710.998478235084" y="78.00239901214735" as="geometry">
            <mxPoint x="341" y="2" as="offset" />
          </mxGeometry>
        </mxCell>
        <mxCell id="r9IzJmFW5y46hCvMNoL_-93" value="Order" style="rounded=1;arcSize=10;whiteSpace=wrap;html=1;align=center;strokeColor=none;fillColor=#6666ff;fontColor=#ffffff;" vertex="1" parent="1">
          <mxGeometry x="1450" y="330" width="100" height="40" as="geometry" />
        </mxCell>
        <mxCell id="r9IzJmFW5y46hCvMNoL_-94" value="id" style="ellipse;whiteSpace=wrap;html=1;align=center;fontStyle=4;strokeColor=none;fillColor=#9999ff;fontColor=#FFFFFF;" vertex="1" parent="1">
          <mxGeometry x="1380" y="240" width="100" height="40" as="geometry" />
        </mxCell>
        <mxCell id="r9IzJmFW5y46hCvMNoL_-95" value="CreatedAt" style="ellipse;whiteSpace=wrap;html=1;align=center;fillColor=#9999ff;strokeColor=none;fillStyle=solid;fontColor=#FFFFFF;" vertex="1" parent="1">
          <mxGeometry x="1520" y="240" width="100" height="40" as="geometry" />
        </mxCell>
        <mxCell id="r9IzJmFW5y46hCvMNoL_-96" value="ship cost&amp;nbsp;" style="ellipse;whiteSpace=wrap;html=1;align=center;fillColor=#9999ff;strokeColor=none;fillStyle=solid;fontColor=#FFFFFF;" vertex="1" parent="1">
          <mxGeometry x="1680" y="330" width="100" height="40" as="geometry" />
        </mxCell>
        <mxCell id="r9IzJmFW5y46hCvMNoL_-97" value="Totail cost" style="ellipse;whiteSpace=wrap;html=1;align=center;fillColor=#9999ff;strokeColor=none;fillStyle=solid;fontColor=#FFFFFF;" vertex="1" parent="1">
          <mxGeometry x="1620" y="280" width="100" height="40" as="geometry" />
        </mxCell>
        <mxCell id="r9IzJmFW5y46hCvMNoL_-98" value="Discount" style="ellipse;whiteSpace=wrap;html=1;align=center;fillColor=#9999ff;strokeColor=none;fillStyle=solid;fontColor=#FFFFFF;" vertex="1" parent="1">
          <mxGeometry x="1620" y="380" width="100" height="40" as="geometry" />
        </mxCell>
        <mxCell id="r9IzJmFW5y46hCvMNoL_-99" value="Note" style="ellipse;whiteSpace=wrap;html=1;align=center;fillColor=#9999ff;strokeColor=none;fillStyle=solid;fontColor=#FFFFFF;" vertex="1" parent="1">
          <mxGeometry x="1380" y="420" width="100" height="40" as="geometry" />
        </mxCell>
        <mxCell id="r9IzJmFW5y46hCvMNoL_-100" value="Final cost" style="ellipse;whiteSpace=wrap;html=1;align=center;fillColor=#9999ff;strokeColor=none;fillStyle=solid;fontColor=#FFFFFF;" vertex="1" parent="1">
          <mxGeometry x="1520" y="420" width="100" height="40" as="geometry" />
        </mxCell>
        <mxCell id="r9IzJmFW5y46hCvMNoL_-101" value="" style="endArrow=none;html=1;rounded=0;entryX=0.681;entryY=0.96;entryDx=0;entryDy=0;exitX=0.25;exitY=0;exitDx=0;exitDy=0;strokeColor=#9999ff;entryPerimeter=0;" edge="1" parent="1" source="r9IzJmFW5y46hCvMNoL_-93" target="r9IzJmFW5y46hCvMNoL_-94">
          <mxGeometry relative="1" as="geometry">
            <mxPoint x="1160" y="-20" as="sourcePoint" />
            <mxPoint x="1230" y="-20" as="targetPoint" />
          </mxGeometry>
        </mxCell>
        <mxCell id="r9IzJmFW5y46hCvMNoL_-102" value="" style="endArrow=none;html=1;rounded=0;entryX=0.5;entryY=1;entryDx=0;entryDy=0;exitX=0.75;exitY=0;exitDx=0;exitDy=0;strokeColor=#9999ff;" edge="1" parent="1" source="r9IzJmFW5y46hCvMNoL_-93" target="r9IzJmFW5y46hCvMNoL_-95">
          <mxGeometry relative="1" as="geometry">
            <mxPoint x="1485" y="340" as="sourcePoint" />
            <mxPoint x="1448" y="288" as="targetPoint" />
          </mxGeometry>
        </mxCell>
        <mxCell id="r9IzJmFW5y46hCvMNoL_-103" value="" style="endArrow=none;html=1;rounded=0;entryX=0;entryY=1;entryDx=0;entryDy=0;strokeColor=#9999ff;fontStyle=1;exitX=1;exitY=0.25;exitDx=0;exitDy=0;" edge="1" parent="1" source="r9IzJmFW5y46hCvMNoL_-93" target="r9IzJmFW5y46hCvMNoL_-97">
          <mxGeometry relative="1" as="geometry">
            <mxPoint x="1550" y="330" as="sourcePoint" />
            <mxPoint x="1458" y="298" as="targetPoint" />
          </mxGeometry>
        </mxCell>
        <mxCell id="r9IzJmFW5y46hCvMNoL_-104" value="" style="endArrow=none;html=1;rounded=0;entryX=0;entryY=0.5;entryDx=0;entryDy=0;exitX=1;exitY=0.5;exitDx=0;exitDy=0;strokeColor=#9999ff;" edge="1" parent="1" source="r9IzJmFW5y46hCvMNoL_-93" target="r9IzJmFW5y46hCvMNoL_-96">
          <mxGeometry relative="1" as="geometry">
            <mxPoint x="1505" y="360" as="sourcePoint" />
            <mxPoint x="1468" y="308" as="targetPoint" />
          </mxGeometry>
        </mxCell>
        <mxCell id="r9IzJmFW5y46hCvMNoL_-105" value="" style="endArrow=none;html=1;rounded=0;entryX=0;entryY=0;entryDx=0;entryDy=0;strokeColor=#9999ff;fontStyle=1;exitX=1;exitY=0.75;exitDx=0;exitDy=0;" edge="1" parent="1" source="r9IzJmFW5y46hCvMNoL_-93" target="r9IzJmFW5y46hCvMNoL_-98">
          <mxGeometry relative="1" as="geometry">
            <mxPoint x="1560" y="350" as="sourcePoint" />
            <mxPoint x="1645" y="324" as="targetPoint" />
          </mxGeometry>
        </mxCell>
        <mxCell id="r9IzJmFW5y46hCvMNoL_-106" value="" style="endArrow=none;html=1;rounded=0;entryX=0.5;entryY=0;entryDx=0;entryDy=0;strokeColor=#9999ff;fontStyle=1;exitX=0.75;exitY=1;exitDx=0;exitDy=0;" edge="1" parent="1" source="r9IzJmFW5y46hCvMNoL_-93" target="r9IzJmFW5y46hCvMNoL_-100">
          <mxGeometry relative="1" as="geometry">
            <mxPoint x="1570" y="360" as="sourcePoint" />
            <mxPoint x="1655" y="334" as="targetPoint" />
          </mxGeometry>
        </mxCell>
        <mxCell id="r9IzJmFW5y46hCvMNoL_-107" value="" style="endArrow=none;html=1;rounded=0;entryX=0.665;entryY=0.055;entryDx=0;entryDy=0;strokeColor=#9999ff;fontStyle=1;exitX=0.25;exitY=1;exitDx=0;exitDy=0;entryPerimeter=0;" edge="1" parent="1" source="r9IzJmFW5y46hCvMNoL_-93" target="r9IzJmFW5y46hCvMNoL_-99">
          <mxGeometry relative="1" as="geometry">
            <mxPoint x="1580" y="370" as="sourcePoint" />
            <mxPoint x="1665" y="344" as="targetPoint" />
          </mxGeometry>
        </mxCell>
        <mxCell id="r9IzJmFW5y46hCvMNoL_-108" value="" style="endArrow=none;html=1;rounded=0;exitX=0.5;exitY=1;exitDx=0;exitDy=0;entryX=0;entryY=0.5;entryDx=0;entryDy=0;strokeWidth=2;strokeColor=#6666ff;" edge="1" parent="1" source="r9IzJmFW5y46hCvMNoL_-74" target="r9IzJmFW5y46hCvMNoL_-93">
          <mxGeometry relative="1" as="geometry">
            <mxPoint x="1190" y="150" as="sourcePoint" />
            <mxPoint x="920" y="150" as="targetPoint" />
          </mxGeometry>
        </mxCell>
        <mxCell id="r9IzJmFW5y46hCvMNoL_-109" value="N" style="resizable=0;html=1;whiteSpace=wrap;align=left;verticalAlign=bottom;fontColor=#6666ff;" connectable="0" vertex="1" parent="r9IzJmFW5y46hCvMNoL_-108">
          <mxGeometry x="-1" relative="1" as="geometry">
            <mxPoint x="-12" y="17" as="offset" />
          </mxGeometry>
        </mxCell>
        <mxCell id="r9IzJmFW5y46hCvMNoL_-110" value="1" style="resizable=0;html=1;whiteSpace=wrap;align=right;verticalAlign=bottom;fontColor=#6666ff;" connectable="0" vertex="1" parent="r9IzJmFW5y46hCvMNoL_-108">
          <mxGeometry x="1" relative="1" as="geometry">
            <mxPoint x="-10" y="-20" as="offset" />
          </mxGeometry>
        </mxCell>
        <mxCell id="r9IzJmFW5y46hCvMNoL_-111" value="has" style="shape=rhombus;perimeter=rhombusPerimeter;whiteSpace=wrap;html=1;align=center;fillColor=none;strokeColor=#6666ff;fontColor=#6666ff;" vertex="1" parent="1">
          <mxGeometry x="1452.5" y="100" width="95" height="47.5" as="geometry" />
        </mxCell>
        <mxCell id="r9IzJmFW5y46hCvMNoL_-112" value="has" style="shape=rhombus;perimeter=rhombusPerimeter;whiteSpace=wrap;html=1;align=center;fillColor=none;strokeColor=#6666ff;fontColor=#6666ff;" vertex="1" parent="1">
          <mxGeometry x="1700" y="147.5" width="95" height="47.5" as="geometry" />
        </mxCell>
        <mxCell id="r9IzJmFW5y46hCvMNoL_-113" value="Category" style="rounded=1;arcSize=10;whiteSpace=wrap;html=1;align=center;strokeColor=none;fillColor=#6666ff;fontColor=#ffffff;" vertex="1" parent="1">
          <mxGeometry x="1450" y="-50" width="100" height="40" as="geometry" />
        </mxCell>
        <mxCell id="r9IzJmFW5y46hCvMNoL_-114" value="Payment&lt;br&gt;method" style="rounded=1;arcSize=10;whiteSpace=wrap;html=1;align=center;strokeColor=none;fillColor=#6666ff;fontColor=#ffffff;" vertex="1" parent="1">
          <mxGeometry x="1452.5" y="-50" width="100" height="40" as="geometry" />
        </mxCell>
        <mxCell id="r9IzJmFW5y46hCvMNoL_-115" value="Name" style="ellipse;whiteSpace=wrap;html=1;align=center;fillColor=#9999ff;strokeColor=none;fillStyle=solid;fontColor=#FFFFFF;" vertex="1" parent="1">
          <mxGeometry x="1520" y="-130" width="100" height="40" as="geometry" />
        </mxCell>
        <mxCell id="r9IzJmFW5y46hCvMNoL_-116" value="id" style="ellipse;whiteSpace=wrap;html=1;align=center;fontStyle=4;strokeColor=none;fillColor=#9999ff;fontColor=#FFFFFF;" vertex="1" parent="1">
          <mxGeometry x="1380" y="-130" width="100" height="40" as="geometry" />
        </mxCell>
        <mxCell id="r9IzJmFW5y46hCvMNoL_-117" value="" style="endArrow=none;html=1;rounded=0;entryX=0.302;entryY=0.938;entryDx=0;entryDy=0;exitX=0.75;exitY=0;exitDx=0;exitDy=0;entryPerimeter=0;strokeColor=#9999ff;" edge="1" parent="1" source="r9IzJmFW5y46hCvMNoL_-114" target="r9IzJmFW5y46hCvMNoL_-115">
          <mxGeometry relative="1" as="geometry">
            <mxPoint x="1680" y="110" as="sourcePoint" />
            <mxPoint x="1680" y="70" as="targetPoint" />
          </mxGeometry>
        </mxCell>
        <mxCell id="r9IzJmFW5y46hCvMNoL_-118" value="" style="endArrow=none;html=1;rounded=0;entryX=0.706;entryY=0.967;entryDx=0;entryDy=0;exitX=0.25;exitY=0;exitDx=0;exitDy=0;entryPerimeter=0;strokeColor=#9999ff;" edge="1" parent="1" source="r9IzJmFW5y46hCvMNoL_-114" target="r9IzJmFW5y46hCvMNoL_-116">
          <mxGeometry relative="1" as="geometry">
            <mxPoint x="1535" y="-40" as="sourcePoint" />
            <mxPoint x="1560" y="-82" as="targetPoint" />
          </mxGeometry>
        </mxCell>
        <mxCell id="r9IzJmFW5y46hCvMNoL_-119" value="Category" style="rounded=1;arcSize=10;whiteSpace=wrap;html=1;align=center;strokeColor=none;fillColor=#6666ff;fontColor=#ffffff;" vertex="1" parent="1">
          <mxGeometry x="1850" y="40" width="100" height="40" as="geometry" />
        </mxCell>
        <mxCell id="r9IzJmFW5y46hCvMNoL_-120" value="Status" style="rounded=1;arcSize=10;whiteSpace=wrap;html=1;align=center;strokeColor=none;fillColor=#6666ff;fontColor=#ffffff;" vertex="1" parent="1">
          <mxGeometry x="1850" y="40" width="100" height="40" as="geometry" />
        </mxCell>
        <mxCell id="r9IzJmFW5y46hCvMNoL_-121" value="value" style="ellipse;whiteSpace=wrap;html=1;align=center;fillColor=#9999ff;strokeColor=none;fillStyle=solid;fontColor=#FFFFFF;" vertex="1" parent="1">
          <mxGeometry x="2010" y="40" width="100" height="40" as="geometry" />
        </mxCell>
        <mxCell id="r9IzJmFW5y46hCvMNoL_-122" value="id" style="ellipse;whiteSpace=wrap;html=1;align=center;fontStyle=4;strokeColor=none;fillColor=#9999ff;fontColor=#FFFFFF;" vertex="1" parent="1">
          <mxGeometry x="1850" y="-50" width="100" height="40" as="geometry" />
        </mxCell>
        <mxCell id="r9IzJmFW5y46hCvMNoL_-123" value="" style="endArrow=none;html=1;rounded=0;entryX=0;entryY=0.5;entryDx=0;entryDy=0;exitX=1;exitY=0.5;exitDx=0;exitDy=0;strokeColor=#9999ff;" edge="1" parent="1" source="r9IzJmFW5y46hCvMNoL_-120" target="r9IzJmFW5y46hCvMNoL_-121">
          <mxGeometry relative="1" as="geometry">
            <mxPoint x="2080" y="200" as="sourcePoint" />
            <mxPoint x="2080" y="160" as="targetPoint" />
          </mxGeometry>
        </mxCell>
        <mxCell id="r9IzJmFW5y46hCvMNoL_-124" value="" style="endArrow=none;html=1;rounded=0;entryX=0.5;entryY=1;entryDx=0;entryDy=0;exitX=0.5;exitY=0;exitDx=0;exitDy=0;strokeColor=#9999ff;" edge="1" parent="1" source="r9IzJmFW5y46hCvMNoL_-120" target="r9IzJmFW5y46hCvMNoL_-122">
          <mxGeometry relative="1" as="geometry">
            <mxPoint x="1935" y="50" as="sourcePoint" />
            <mxPoint x="1960" y="8" as="targetPoint" />
          </mxGeometry>
        </mxCell>
        <mxCell id="r9IzJmFW5y46hCvMNoL_-125" value="" style="endArrow=none;html=1;rounded=0;entryX=0.5;entryY=0;entryDx=0;entryDy=0;exitX=0.5;exitY=1;exitDx=0;exitDy=0;strokeWidth=2;strokeColor=#6666ff;" edge="1" parent="1" source="r9IzJmFW5y46hCvMNoL_-111" target="r9IzJmFW5y46hCvMNoL_-93">
          <mxGeometry relative="1" as="geometry">
            <mxPoint x="655" y="-116" as="sourcePoint" />
            <mxPoint x="690" y="-40" as="targetPoint" />
          </mxGeometry>
        </mxCell>
        <mxCell id="r9IzJmFW5y46hCvMNoL_-126" value="N" style="resizable=0;html=1;whiteSpace=wrap;align=right;verticalAlign=bottom;fontColor=#6666ff;" connectable="0" vertex="1" parent="r9IzJmFW5y46hCvMNoL_-125">
          <mxGeometry x="1" relative="1" as="geometry">
            <mxPoint x="14" y="2" as="offset" />
          </mxGeometry>
        </mxCell>
        <mxCell id="r9IzJmFW5y46hCvMNoL_-127" value="" style="endArrow=none;html=1;rounded=0;entryX=0.5;entryY=1;entryDx=0;entryDy=0;strokeWidth=2;strokeColor=#6666ff;" edge="1" parent="1" source="r9IzJmFW5y46hCvMNoL_-111" target="r9IzJmFW5y46hCvMNoL_-114">
          <mxGeometry relative="1" as="geometry">
            <mxPoint x="560" y="-116" as="sourcePoint" />
            <mxPoint x="550" y="-190" as="targetPoint" />
          </mxGeometry>
        </mxCell>
        <mxCell id="r9IzJmFW5y46hCvMNoL_-128" value="1" style="resizable=0;html=1;whiteSpace=wrap;align=right;verticalAlign=bottom;fontColor=#6666ff;" connectable="0" vertex="1" parent="r9IzJmFW5y46hCvMNoL_-127">
          <mxGeometry x="1" relative="1" as="geometry">
            <mxPoint x="-1" y="16" as="offset" />
          </mxGeometry>
        </mxCell>
        <mxCell id="r9IzJmFW5y46hCvMNoL_-129" value="" style="endArrow=none;html=1;rounded=0;exitX=0.5;exitY=1;exitDx=0;exitDy=0;strokeWidth=2;strokeColor=#6666ff;entryX=0.974;entryY=0.069;entryDx=0;entryDy=0;entryPerimeter=0;" edge="1" parent="1" source="r9IzJmFW5y46hCvMNoL_-112" target="r9IzJmFW5y46hCvMNoL_-93">
          <mxGeometry relative="1" as="geometry">
            <mxPoint x="1510" y="158" as="sourcePoint" />
            <mxPoint x="1550" y="330" as="targetPoint" />
          </mxGeometry>
        </mxCell>
        <mxCell id="r9IzJmFW5y46hCvMNoL_-130" value="N" style="resizable=0;html=1;whiteSpace=wrap;align=right;verticalAlign=bottom;fontColor=#6666ff;" connectable="0" vertex="1" parent="r9IzJmFW5y46hCvMNoL_-129">
          <mxGeometry x="1" relative="1" as="geometry">
            <mxPoint x="2" as="offset" />
          </mxGeometry>
        </mxCell>
        <mxCell id="r9IzJmFW5y46hCvMNoL_-131" value="" style="endArrow=none;html=1;rounded=0;entryX=0.5;entryY=1;entryDx=0;entryDy=0;strokeWidth=2;strokeColor=#6666ff;exitX=0.5;exitY=0;exitDx=0;exitDy=0;" edge="1" parent="1" source="r9IzJmFW5y46hCvMNoL_-112" target="r9IzJmFW5y46hCvMNoL_-120">
          <mxGeometry relative="1" as="geometry">
            <mxPoint x="1510" y="110" as="sourcePoint" />
            <mxPoint x="1513" as="targetPoint" />
          </mxGeometry>
        </mxCell>
        <mxCell id="r9IzJmFW5y46hCvMNoL_-132" value="1" style="resizable=0;html=1;whiteSpace=wrap;align=right;verticalAlign=bottom;fontColor=#6666ff;" connectable="0" vertex="1" parent="r9IzJmFW5y46hCvMNoL_-131">
          <mxGeometry x="1" relative="1" as="geometry">
            <mxPoint x="10" y="16" as="offset" />
          </mxGeometry>
        </mxCell>
        <mxCell id="vPIxwhePFeFq_k7rVSuH-3" value="shipped by" style="shape=rhombus;perimeter=rhombusPerimeter;whiteSpace=wrap;html=1;align=center;fillColor=none;strokeColor=#6666ff;fontColor=#6666ff;" vertex="1" parent="1">
          <mxGeometry x="1693" y="517.5" width="95" height="47.5" as="geometry" />
        </mxCell>
        <mxCell id="vPIxwhePFeFq_k7rVSuH-4" value="Staff" style="rounded=1;arcSize=10;whiteSpace=wrap;html=1;align=center;strokeColor=none;fillColor=#6666ff;fontColor=#ffffff;" vertex="1" parent="1">
          <mxGeometry x="1850" y="650" width="100" height="40" as="geometry" />
        </mxCell>
        <mxCell id="vPIxwhePFeFq_k7rVSuH-5" value="Position" style="ellipse;whiteSpace=wrap;html=1;align=center;fillColor=#9999ff;strokeColor=none;fillStyle=solid;fontColor=#FFFFFF;" vertex="1" parent="1">
          <mxGeometry x="1940" y="730" width="100" height="40" as="geometry" />
        </mxCell>
        <mxCell id="vPIxwhePFeFq_k7rVSuH-6" value="id" style="ellipse;whiteSpace=wrap;html=1;align=center;fontStyle=4;strokeColor=none;fillColor=#9999ff;fontColor=#FFFFFF;" vertex="1" parent="1">
          <mxGeometry x="1850" y="545" width="100" height="40" as="geometry" />
        </mxCell>
        <mxCell id="vPIxwhePFeFq_k7rVSuH-7" value="" style="endArrow=none;html=1;rounded=0;exitX=0.5;exitY=0;exitDx=0;exitDy=0;strokeWidth=2;strokeColor=#6666ff;entryX=0.987;entryY=0.964;entryDx=0;entryDy=0;entryPerimeter=0;" edge="1" parent="1" source="vPIxwhePFeFq_k7rVSuH-3" target="r9IzJmFW5y46hCvMNoL_-93">
          <mxGeometry relative="1" as="geometry">
            <mxPoint x="1503" y="528" as="sourcePoint" />
            <mxPoint x="1550" y="370" as="targetPoint" />
          </mxGeometry>
        </mxCell>
        <mxCell id="vPIxwhePFeFq_k7rVSuH-8" value="N" style="resizable=0;html=1;whiteSpace=wrap;align=right;verticalAlign=bottom;fontColor=#6666ff;" connectable="0" vertex="1" parent="vPIxwhePFeFq_k7rVSuH-7">
          <mxGeometry x="1" relative="1" as="geometry">
            <mxPoint x="1" y="16" as="offset" />
          </mxGeometry>
        </mxCell>
        <mxCell id="vPIxwhePFeFq_k7rVSuH-9" value="" style="endArrow=none;html=1;rounded=0;entryX=0;entryY=0;entryDx=0;entryDy=0;strokeWidth=2;strokeColor=#6666ff;exitX=0.5;exitY=1;exitDx=0;exitDy=0;" edge="1" parent="1" source="vPIxwhePFeFq_k7rVSuH-3" target="vPIxwhePFeFq_k7rVSuH-4">
          <mxGeometry relative="1" as="geometry">
            <mxPoint x="1503" y="480" as="sourcePoint" />
            <mxPoint x="1506" y="370" as="targetPoint" />
          </mxGeometry>
        </mxCell>
        <mxCell id="vPIxwhePFeFq_k7rVSuH-10" value="1" style="resizable=0;html=1;whiteSpace=wrap;align=right;verticalAlign=bottom;fontColor=#6666ff;" connectable="0" vertex="1" parent="vPIxwhePFeFq_k7rVSuH-9">
          <mxGeometry x="1" relative="1" as="geometry">
            <mxPoint x="10" as="offset" />
          </mxGeometry>
        </mxCell>
        <mxCell id="vPIxwhePFeFq_k7rVSuH-13" value="PhoneNumber" style="ellipse;whiteSpace=wrap;html=1;align=center;fillColor=#9999ff;strokeColor=none;fillStyle=solid;fontColor=#FFFFFF;" vertex="1" parent="1">
          <mxGeometry x="2018" y="700" width="100" height="40" as="geometry" />
        </mxCell>
        <mxCell id="vPIxwhePFeFq_k7rVSuH-14" value="BirthDate" style="ellipse;whiteSpace=wrap;html=1;align=center;fillColor=#9999ff;strokeColor=none;fillStyle=solid;fontColor=#FFFFFF;" vertex="1" parent="1">
          <mxGeometry x="2060" y="650" width="100" height="40" as="geometry" />
        </mxCell>
        <mxCell id="vPIxwhePFeFq_k7rVSuH-15" value="sex" style="ellipse;whiteSpace=wrap;html=1;align=center;fillColor=#9999ff;strokeColor=none;fillStyle=solid;fontColor=#FFFFFF;" vertex="1" parent="1">
          <mxGeometry x="2018" y="605" width="100" height="40" as="geometry" />
        </mxCell>
        <mxCell id="vPIxwhePFeFq_k7rVSuH-16" value="Fullname" style="ellipse;whiteSpace=wrap;html=1;align=center;fillColor=#9999ff;strokeColor=none;fillStyle=solid;fontColor=#FFFFFF;" vertex="1" parent="1">
          <mxGeometry x="1940" y="565" width="100" height="40" as="geometry" />
        </mxCell>
        <mxCell id="vPIxwhePFeFq_k7rVSuH-17" value="Startdate" style="ellipse;whiteSpace=wrap;html=1;align=center;fillColor=#9999ff;strokeColor=none;fillStyle=solid;fontColor=#FFFFFF;" vertex="1" parent="1">
          <mxGeometry x="1850" y="760" width="100" height="40" as="geometry" />
        </mxCell>
        <mxCell id="vPIxwhePFeFq_k7rVSuH-18" value="Enddate" style="ellipse;whiteSpace=wrap;html=1;align=center;fillColor=#9999ff;strokeColor=none;fillStyle=solid;fontColor=#FFFFFF;" vertex="1" parent="1">
          <mxGeometry x="1760" y="730" width="100" height="40" as="geometry" />
        </mxCell>
        <mxCell id="vPIxwhePFeFq_k7rVSuH-19" value="MonthlySalary" style="ellipse;whiteSpace=wrap;html=1;align=center;fillColor=#9999ff;strokeColor=none;fillStyle=solid;fontColor=#FFFFFF;" vertex="1" parent="1">
          <mxGeometry x="1697.5" y="680" width="100" height="40" as="geometry" />
        </mxCell>
        <mxCell id="vPIxwhePFeFq_k7rVSuH-20" value="" style="endArrow=none;html=1;rounded=0;entryX=0.5;entryY=0;entryDx=0;entryDy=0;strokeColor=#9999ff;fontStyle=1;exitX=0.5;exitY=1;exitDx=0;exitDy=0;" edge="1" parent="1" source="vPIxwhePFeFq_k7rVSuH-6" target="vPIxwhePFeFq_k7rVSuH-4">
          <mxGeometry relative="1" as="geometry">
            <mxPoint x="1485" y="380" as="sourcePoint" />
            <mxPoint x="1457" y="432" as="targetPoint" />
          </mxGeometry>
        </mxCell>
        <mxCell id="vPIxwhePFeFq_k7rVSuH-21" value="" style="endArrow=none;html=1;rounded=0;entryX=0.75;entryY=0;entryDx=0;entryDy=0;strokeColor=#9999ff;fontStyle=1;exitX=0;exitY=1;exitDx=0;exitDy=0;" edge="1" parent="1" source="vPIxwhePFeFq_k7rVSuH-16" target="vPIxwhePFeFq_k7rVSuH-4">
          <mxGeometry relative="1" as="geometry">
            <mxPoint x="1910" y="595" as="sourcePoint" />
            <mxPoint x="1910" y="660" as="targetPoint" />
          </mxGeometry>
        </mxCell>
        <mxCell id="vPIxwhePFeFq_k7rVSuH-22" value="" style="endArrow=none;html=1;rounded=0;entryX=1;entryY=0.25;entryDx=0;entryDy=0;strokeColor=#9999ff;fontStyle=1;exitX=0;exitY=1;exitDx=0;exitDy=0;" edge="1" parent="1" source="vPIxwhePFeFq_k7rVSuH-15" target="vPIxwhePFeFq_k7rVSuH-4">
          <mxGeometry relative="1" as="geometry">
            <mxPoint x="1920" y="605" as="sourcePoint" />
            <mxPoint x="1920" y="670" as="targetPoint" />
          </mxGeometry>
        </mxCell>
        <mxCell id="vPIxwhePFeFq_k7rVSuH-23" value="" style="endArrow=none;html=1;rounded=0;entryX=1;entryY=0.5;entryDx=0;entryDy=0;strokeColor=#9999ff;fontStyle=1;exitX=0;exitY=0.5;exitDx=0;exitDy=0;" edge="1" parent="1" source="vPIxwhePFeFq_k7rVSuH-14" target="vPIxwhePFeFq_k7rVSuH-4">
          <mxGeometry relative="1" as="geometry">
            <mxPoint x="1930" y="615" as="sourcePoint" />
            <mxPoint x="1930" y="680" as="targetPoint" />
          </mxGeometry>
        </mxCell>
        <mxCell id="vPIxwhePFeFq_k7rVSuH-24" value="" style="endArrow=none;html=1;rounded=0;entryX=1;entryY=0.75;entryDx=0;entryDy=0;strokeColor=#9999ff;fontStyle=1;exitX=0;exitY=0;exitDx=0;exitDy=0;" edge="1" parent="1" source="vPIxwhePFeFq_k7rVSuH-13" target="vPIxwhePFeFq_k7rVSuH-4">
          <mxGeometry relative="1" as="geometry">
            <mxPoint x="1940" y="625" as="sourcePoint" />
            <mxPoint x="1940" y="690" as="targetPoint" />
          </mxGeometry>
        </mxCell>
        <mxCell id="vPIxwhePFeFq_k7rVSuH-25" value="" style="endArrow=none;html=1;rounded=0;entryX=0.75;entryY=1;entryDx=0;entryDy=0;strokeColor=#9999ff;fontStyle=1;exitX=0;exitY=0;exitDx=0;exitDy=0;" edge="1" parent="1" source="vPIxwhePFeFq_k7rVSuH-5" target="vPIxwhePFeFq_k7rVSuH-4">
          <mxGeometry relative="1" as="geometry">
            <mxPoint x="1950" y="635" as="sourcePoint" />
            <mxPoint x="1950" y="700" as="targetPoint" />
          </mxGeometry>
        </mxCell>
        <mxCell id="vPIxwhePFeFq_k7rVSuH-26" value="" style="endArrow=none;html=1;rounded=0;entryX=0.5;entryY=0;entryDx=0;entryDy=0;strokeColor=#9999ff;fontStyle=1;exitX=0.5;exitY=1;exitDx=0;exitDy=0;" edge="1" parent="1" source="vPIxwhePFeFq_k7rVSuH-4" target="vPIxwhePFeFq_k7rVSuH-17">
          <mxGeometry relative="1" as="geometry">
            <mxPoint x="1960" y="645" as="sourcePoint" />
            <mxPoint x="1960" y="710" as="targetPoint" />
          </mxGeometry>
        </mxCell>
        <mxCell id="vPIxwhePFeFq_k7rVSuH-27" value="" style="endArrow=none;html=1;rounded=0;entryX=1;entryY=0;entryDx=0;entryDy=0;strokeColor=#9999ff;fontStyle=1;exitX=0.25;exitY=1;exitDx=0;exitDy=0;" edge="1" parent="1" source="vPIxwhePFeFq_k7rVSuH-4" target="vPIxwhePFeFq_k7rVSuH-18">
          <mxGeometry relative="1" as="geometry">
            <mxPoint x="1970" y="655" as="sourcePoint" />
            <mxPoint x="1970" y="720" as="targetPoint" />
          </mxGeometry>
        </mxCell>
        <mxCell id="vPIxwhePFeFq_k7rVSuH-28" value="" style="endArrow=none;html=1;rounded=0;entryX=1;entryY=0.5;entryDx=0;entryDy=0;strokeColor=#9999ff;fontStyle=1;exitX=0;exitY=0.75;exitDx=0;exitDy=0;" edge="1" parent="1" source="vPIxwhePFeFq_k7rVSuH-4" target="vPIxwhePFeFq_k7rVSuH-19">
          <mxGeometry relative="1" as="geometry">
            <mxPoint x="1980" y="665" as="sourcePoint" />
            <mxPoint x="1980" y="730" as="targetPoint" />
          </mxGeometry>
        </mxCell>
        <mxCell id="vPIxwhePFeFq_k7rVSuH-29" value="Payment info" style="rounded=1;arcSize=10;whiteSpace=wrap;html=1;align=center;strokeColor=none;fillColor=#6666ff;fontColor=#ffffff;" vertex="1" parent="1">
          <mxGeometry x="810" y="665" width="100" height="40" as="geometry" />
        </mxCell>
        <mxCell id="vPIxwhePFeFq_k7rVSuH-30" value="id" style="ellipse;whiteSpace=wrap;html=1;align=center;fontStyle=4;strokeColor=none;fillColor=#9999ff;fontColor=#FFFFFF;" vertex="1" parent="1">
          <mxGeometry x="570" y="665" width="100" height="40" as="geometry" />
        </mxCell>
        <mxCell id="vPIxwhePFeFq_k7rVSuH-31" value="Card Number" style="ellipse;whiteSpace=wrap;html=1;align=center;fillColor=#9999ff;strokeColor=none;fillStyle=solid;fontColor=#FFFFFF;" vertex="1" parent="1">
          <mxGeometry x="990" y="607.5" width="100" height="40" as="geometry" />
        </mxCell>
        <mxCell id="vPIxwhePFeFq_k7rVSuH-32" value="Exp Month" style="ellipse;whiteSpace=wrap;html=1;align=center;fillColor=#9999ff;strokeColor=none;fillStyle=solid;fontColor=#FFFFFF;" vertex="1" parent="1">
          <mxGeometry x="1050" y="662.5" width="100" height="40" as="geometry" />
        </mxCell>
        <mxCell id="vPIxwhePFeFq_k7rVSuH-33" value="Exp Year" style="ellipse;whiteSpace=wrap;html=1;align=center;fillColor=#9999ff;strokeColor=none;fillStyle=solid;fontColor=#FFFFFF;" vertex="1" parent="1">
          <mxGeometry x="990" y="722.5" width="100" height="40" as="geometry" />
        </mxCell>
        <mxCell id="vPIxwhePFeFq_k7rVSuH-34" value="Securuty Code" style="ellipse;whiteSpace=wrap;html=1;align=center;fillColor=#9999ff;strokeColor=none;fillStyle=solid;fontColor=#FFFFFF;" vertex="1" parent="1">
          <mxGeometry x="910" y="762.5" width="100" height="40" as="geometry" />
        </mxCell>
        <mxCell id="vPIxwhePFeFq_k7rVSuH-35" value="Owner Name" style="ellipse;whiteSpace=wrap;html=1;align=center;fillColor=#9999ff;strokeColor=none;fillStyle=solid;fontColor=#FFFFFF;" vertex="1" parent="1">
          <mxGeometry x="810" y="785" width="100" height="40" as="geometry" />
        </mxCell>
        <mxCell id="vPIxwhePFeFq_k7rVSuH-36" value="Billing adress 1" style="ellipse;whiteSpace=wrap;html=1;align=center;fillColor=#9999ff;strokeColor=none;fillStyle=solid;fontColor=#FFFFFF;" vertex="1" parent="1">
          <mxGeometry x="710" y="762.5" width="100" height="40" as="geometry" />
        </mxCell>
        <mxCell id="vPIxwhePFeFq_k7rVSuH-37" value="Billing adress 2" style="ellipse;whiteSpace=wrap;html=1;align=center;fillColor=#9999ff;strokeColor=none;fillStyle=solid;fontColor=#FFFFFF;" vertex="1" parent="1">
          <mxGeometry x="640" y="722.5" width="100" height="40" as="geometry" />
        </mxCell>
        <mxCell id="vPIxwhePFeFq_k7rVSuH-38" value="City" style="ellipse;whiteSpace=wrap;html=1;align=center;fillColor=#9999ff;strokeColor=none;fillStyle=solid;fontColor=#FFFFFF;" vertex="1" parent="1">
          <mxGeometry x="640" y="607.5" width="100" height="40" as="geometry" />
        </mxCell>
        <mxCell id="vPIxwhePFeFq_k7rVSuH-39" value="Zip code" style="ellipse;whiteSpace=wrap;html=1;align=center;fillColor=#9999ff;strokeColor=none;fillStyle=solid;fontColor=#FFFFFF;" vertex="1" parent="1">
          <mxGeometry x="710" y="565" width="100" height="40" as="geometry" />
        </mxCell>
        <mxCell id="vPIxwhePFeFq_k7rVSuH-40" value="Country" style="ellipse;whiteSpace=wrap;html=1;align=center;fillColor=#9999ff;strokeColor=none;fillStyle=solid;fontColor=#FFFFFF;" vertex="1" parent="1">
          <mxGeometry x="810" y="545" width="100" height="40" as="geometry" />
        </mxCell>
        <mxCell id="vPIxwhePFeFq_k7rVSuH-41" value="paid using" style="shape=rhombus;perimeter=rhombusPerimeter;whiteSpace=wrap;html=1;align=center;fillColor=none;strokeColor=#6666ff;fontColor=#6666ff;" vertex="1" parent="1">
          <mxGeometry x="1125" y="480" width="95" height="47.5" as="geometry" />
        </mxCell>
        <mxCell id="vPIxwhePFeFq_k7rVSuH-42" value="" style="endArrow=none;html=1;rounded=0;exitX=1;exitY=0.5;exitDx=0;exitDy=0;strokeWidth=2;strokeColor=#6666ff;entryX=0.013;entryY=0.95;entryDx=0;entryDy=0;entryPerimeter=0;" edge="1" parent="1" source="vPIxwhePFeFq_k7rVSuH-41" target="r9IzJmFW5y46hCvMNoL_-93">
          <mxGeometry relative="1" as="geometry">
            <mxPoint x="1510" y="158" as="sourcePoint" />
            <mxPoint x="1450" y="370" as="targetPoint" />
          </mxGeometry>
        </mxCell>
        <mxCell id="vPIxwhePFeFq_k7rVSuH-43" value="N" style="resizable=0;html=1;whiteSpace=wrap;align=right;verticalAlign=bottom;fontColor=#6666ff;" connectable="0" vertex="1" parent="vPIxwhePFeFq_k7rVSuH-42">
          <mxGeometry x="1" relative="1" as="geometry">
            <mxPoint as="offset" />
          </mxGeometry>
        </mxCell>
        <mxCell id="vPIxwhePFeFq_k7rVSuH-44" value="" style="endArrow=none;html=1;rounded=0;strokeWidth=2;strokeColor=#6666ff;exitX=0;exitY=0.5;exitDx=0;exitDy=0;entryX=0.979;entryY=0.043;entryDx=0;entryDy=0;entryPerimeter=0;" edge="1" parent="1" source="vPIxwhePFeFq_k7rVSuH-41" target="vPIxwhePFeFq_k7rVSuH-29">
          <mxGeometry relative="1" as="geometry">
            <mxPoint x="1510" y="110" as="sourcePoint" />
            <mxPoint x="1000" y="810" as="targetPoint" />
          </mxGeometry>
        </mxCell>
        <mxCell id="vPIxwhePFeFq_k7rVSuH-45" value="1" style="resizable=0;html=1;whiteSpace=wrap;align=right;verticalAlign=bottom;fontColor=#6666ff;" connectable="0" vertex="1" parent="vPIxwhePFeFq_k7rVSuH-44">
          <mxGeometry x="1" relative="1" as="geometry">
            <mxPoint as="offset" />
          </mxGeometry>
        </mxCell>
        <mxCell id="vPIxwhePFeFq_k7rVSuH-46" value="" style="endArrow=none;html=1;rounded=0;entryX=1;entryY=0.25;entryDx=0;entryDy=0;strokeColor=#9999ff;fontStyle=1;exitX=0;exitY=1;exitDx=0;exitDy=0;" edge="1" parent="1" source="vPIxwhePFeFq_k7rVSuH-31" target="vPIxwhePFeFq_k7rVSuH-29">
          <mxGeometry relative="1" as="geometry">
            <mxPoint x="1395" y="235" as="sourcePoint" />
            <mxPoint x="1367" y="287" as="targetPoint" />
          </mxGeometry>
        </mxCell>
        <mxCell id="vPIxwhePFeFq_k7rVSuH-47" value="" style="endArrow=none;html=1;rounded=0;entryX=1;entryY=0.5;entryDx=0;entryDy=0;strokeColor=#9999ff;fontStyle=1;exitX=0;exitY=0.5;exitDx=0;exitDy=0;" edge="1" parent="1" source="vPIxwhePFeFq_k7rVSuH-32" target="vPIxwhePFeFq_k7rVSuH-29">
          <mxGeometry relative="1" as="geometry">
            <mxPoint x="1015" y="652" as="sourcePoint" />
            <mxPoint x="920" y="685" as="targetPoint" />
          </mxGeometry>
        </mxCell>
        <mxCell id="vPIxwhePFeFq_k7rVSuH-48" value="" style="endArrow=none;html=1;rounded=0;entryX=1;entryY=0.75;entryDx=0;entryDy=0;strokeColor=#9999ff;fontStyle=1;exitX=0;exitY=0;exitDx=0;exitDy=0;" edge="1" parent="1" source="vPIxwhePFeFq_k7rVSuH-33" target="vPIxwhePFeFq_k7rVSuH-29">
          <mxGeometry relative="1" as="geometry">
            <mxPoint x="1025" y="662" as="sourcePoint" />
            <mxPoint x="930" y="695" as="targetPoint" />
          </mxGeometry>
        </mxCell>
        <mxCell id="vPIxwhePFeFq_k7rVSuH-49" value="" style="endArrow=none;html=1;rounded=0;entryX=0.75;entryY=1;entryDx=0;entryDy=0;strokeColor=#9999ff;fontStyle=1;exitX=0;exitY=0;exitDx=0;exitDy=0;" edge="1" parent="1" source="vPIxwhePFeFq_k7rVSuH-34" target="vPIxwhePFeFq_k7rVSuH-29">
          <mxGeometry relative="1" as="geometry">
            <mxPoint x="1035" y="672" as="sourcePoint" />
            <mxPoint x="940" y="705" as="targetPoint" />
          </mxGeometry>
        </mxCell>
        <mxCell id="vPIxwhePFeFq_k7rVSuH-50" value="" style="endArrow=none;html=1;rounded=0;entryX=0.5;entryY=1;entryDx=0;entryDy=0;strokeColor=#9999ff;fontStyle=1;exitX=0.5;exitY=0;exitDx=0;exitDy=0;" edge="1" parent="1" source="vPIxwhePFeFq_k7rVSuH-35" target="vPIxwhePFeFq_k7rVSuH-29">
          <mxGeometry relative="1" as="geometry">
            <mxPoint x="935" y="778" as="sourcePoint" />
            <mxPoint x="895" y="715" as="targetPoint" />
          </mxGeometry>
        </mxCell>
        <mxCell id="vPIxwhePFeFq_k7rVSuH-51" value="" style="endArrow=none;html=1;rounded=0;entryX=0.25;entryY=1;entryDx=0;entryDy=0;strokeColor=#9999ff;fontStyle=1;exitX=1;exitY=0;exitDx=0;exitDy=0;" edge="1" parent="1" source="vPIxwhePFeFq_k7rVSuH-36" target="vPIxwhePFeFq_k7rVSuH-29">
          <mxGeometry relative="1" as="geometry">
            <mxPoint x="870" y="795" as="sourcePoint" />
            <mxPoint x="870" y="715" as="targetPoint" />
          </mxGeometry>
        </mxCell>
        <mxCell id="vPIxwhePFeFq_k7rVSuH-54" value="" style="endArrow=none;html=1;rounded=0;entryX=0;entryY=0.75;entryDx=0;entryDy=0;strokeColor=#9999ff;fontStyle=1;exitX=1;exitY=0;exitDx=0;exitDy=0;" edge="1" parent="1" source="vPIxwhePFeFq_k7rVSuH-37" target="vPIxwhePFeFq_k7rVSuH-29">
          <mxGeometry relative="1" as="geometry">
            <mxPoint x="805" y="778" as="sourcePoint" />
            <mxPoint x="845" y="715" as="targetPoint" />
          </mxGeometry>
        </mxCell>
        <mxCell id="vPIxwhePFeFq_k7rVSuH-55" value="" style="endArrow=none;html=1;rounded=0;entryX=0;entryY=0.5;entryDx=0;entryDy=0;strokeColor=#9999ff;fontStyle=1;exitX=1;exitY=0.5;exitDx=0;exitDy=0;" edge="1" parent="1" source="vPIxwhePFeFq_k7rVSuH-30" target="vPIxwhePFeFq_k7rVSuH-29">
          <mxGeometry relative="1" as="geometry">
            <mxPoint x="735" y="738" as="sourcePoint" />
            <mxPoint x="820" y="705" as="targetPoint" />
          </mxGeometry>
        </mxCell>
        <mxCell id="vPIxwhePFeFq_k7rVSuH-56" value="" style="endArrow=none;html=1;rounded=0;entryX=0;entryY=0.25;entryDx=0;entryDy=0;strokeColor=#9999ff;fontStyle=1;exitX=1;exitY=1;exitDx=0;exitDy=0;" edge="1" parent="1" source="vPIxwhePFeFq_k7rVSuH-38" target="vPIxwhePFeFq_k7rVSuH-29">
          <mxGeometry relative="1" as="geometry">
            <mxPoint x="680" y="695" as="sourcePoint" />
            <mxPoint x="820" y="695" as="targetPoint" />
          </mxGeometry>
        </mxCell>
        <mxCell id="vPIxwhePFeFq_k7rVSuH-57" value="" style="endArrow=none;html=1;rounded=0;entryX=0.25;entryY=0;entryDx=0;entryDy=0;strokeColor=#9999ff;fontStyle=1;exitX=0.5;exitY=1;exitDx=0;exitDy=0;" edge="1" parent="1" source="vPIxwhePFeFq_k7rVSuH-39" target="vPIxwhePFeFq_k7rVSuH-29">
          <mxGeometry relative="1" as="geometry">
            <mxPoint x="735" y="652" as="sourcePoint" />
            <mxPoint x="820" y="685" as="targetPoint" />
          </mxGeometry>
        </mxCell>
        <mxCell id="vPIxwhePFeFq_k7rVSuH-58" value="" style="endArrow=none;html=1;rounded=0;entryX=0.5;entryY=0;entryDx=0;entryDy=0;strokeColor=#9999ff;fontStyle=1;exitX=0.5;exitY=1;exitDx=0;exitDy=0;" edge="1" parent="1" source="vPIxwhePFeFq_k7rVSuH-40" target="vPIxwhePFeFq_k7rVSuH-29">
          <mxGeometry relative="1" as="geometry">
            <mxPoint x="805" y="609" as="sourcePoint" />
            <mxPoint x="845" y="675" as="targetPoint" />
          </mxGeometry>
        </mxCell>
        <mxCell id="vPIxwhePFeFq_k7rVSuH-59" value="has info" style="shape=rhombus;perimeter=rhombusPerimeter;whiteSpace=wrap;html=1;align=center;fillColor=none;strokeColor=#6666ff;fontColor=#6666ff;" vertex="1" parent="1">
          <mxGeometry x="520" y="510" width="95" height="47.5" as="geometry" />
        </mxCell>
        <mxCell id="vPIxwhePFeFq_k7rVSuH-60" value="" style="endArrow=none;html=1;rounded=0;exitX=1;exitY=0.5;exitDx=0;exitDy=0;strokeWidth=2;strokeColor=#6666ff;entryX=0;entryY=0;entryDx=0;entryDy=0;" edge="1" parent="1" source="vPIxwhePFeFq_k7rVSuH-59" target="vPIxwhePFeFq_k7rVSuH-29">
          <mxGeometry relative="1" as="geometry">
            <mxPoint x="1245" y="531" as="sourcePoint" />
            <mxPoint x="1461" y="378" as="targetPoint" />
          </mxGeometry>
        </mxCell>
        <mxCell id="vPIxwhePFeFq_k7rVSuH-61" value="N" style="resizable=0;html=1;whiteSpace=wrap;align=right;verticalAlign=bottom;fontColor=#6666ff;" connectable="0" vertex="1" parent="vPIxwhePFeFq_k7rVSuH-60">
          <mxGeometry x="1" relative="1" as="geometry">
            <mxPoint x="-40" y="-10" as="offset" />
          </mxGeometry>
        </mxCell>
        <mxCell id="vPIxwhePFeFq_k7rVSuH-62" value="" style="endArrow=none;html=1;rounded=0;strokeWidth=2;strokeColor=#6666ff;exitX=0;exitY=0.5;exitDx=0;exitDy=0;entryX=0.982;entryY=0.954;entryDx=0;entryDy=0;entryPerimeter=0;" edge="1" parent="1" source="vPIxwhePFeFq_k7rVSuH-59" target="r9IzJmFW5y46hCvMNoL_-2">
          <mxGeometry relative="1" as="geometry">
            <mxPoint x="1150" y="531" as="sourcePoint" />
            <mxPoint x="270" y="370" as="targetPoint" />
          </mxGeometry>
        </mxCell>
        <mxCell id="vPIxwhePFeFq_k7rVSuH-63" value="1" style="resizable=0;html=1;whiteSpace=wrap;align=right;verticalAlign=bottom;fontColor=#6666ff;" connectable="0" vertex="1" parent="vPIxwhePFeFq_k7rVSuH-62">
          <mxGeometry x="1" relative="1" as="geometry">
            <mxPoint x="2" y="19" as="offset" />
          </mxGeometry>
        </mxCell>
        <mxCell id="vPIxwhePFeFq_k7rVSuH-66" value="id" style="ellipse;whiteSpace=wrap;html=1;align=center;fontStyle=4;strokeColor=none;fillColor=#9999ff;fontColor=#FFFFFF;" vertex="1" parent="1">
          <mxGeometry x="730" y="240" width="100" height="40" as="geometry" />
        </mxCell>
        <mxCell id="vPIxwhePFeFq_k7rVSuH-67" value="recipient name" style="ellipse;whiteSpace=wrap;html=1;align=center;fillColor=#9999ff;strokeColor=none;fontColor=#FFFFFF;" vertex="1" parent="1">
          <mxGeometry x="890" y="240" width="100" height="40" as="geometry" />
        </mxCell>
        <mxCell id="vPIxwhePFeFq_k7rVSuH-68" value="phone number" style="ellipse;whiteSpace=wrap;html=1;align=center;fillColor=#9999ff;strokeColor=none;fontColor=#FFFFFF;" vertex="1" parent="1">
          <mxGeometry x="890" y="420" width="100" height="40" as="geometry" />
        </mxCell>
        <mxCell id="vPIxwhePFeFq_k7rVSuH-69" value="Address" style="ellipse;whiteSpace=wrap;html=1;align=center;fillColor=#9999ff;strokeColor=none;fontColor=#FFFFFF;" vertex="1" parent="1">
          <mxGeometry x="730" y="420" width="100" height="40" as="geometry" />
        </mxCell>
        <mxCell id="vPIxwhePFeFq_k7rVSuH-70" value="" style="endArrow=none;html=1;rounded=0;entryX=0.5;entryY=1;entryDx=0;entryDy=0;exitX=0.25;exitY=0;exitDx=0;exitDy=0;strokeColor=#9999ff;" edge="1" parent="1" source="vPIxwhePFeFq_k7rVSuH-76" target="vPIxwhePFeFq_k7rVSuH-66">
          <mxGeometry relative="1" as="geometry">
            <mxPoint x="800" y="301.5" as="sourcePoint" />
            <mxPoint x="490" y="271.5" as="targetPoint" />
          </mxGeometry>
        </mxCell>
        <mxCell id="vPIxwhePFeFq_k7rVSuH-71" value="" style="endArrow=none;html=1;rounded=0;entryX=0.5;entryY=1;entryDx=0;entryDy=0;exitX=0.75;exitY=0;exitDx=0;exitDy=0;strokeColor=#9999ff;" edge="1" parent="1" source="vPIxwhePFeFq_k7rVSuH-76" target="vPIxwhePFeFq_k7rVSuH-67">
          <mxGeometry relative="1" as="geometry">
            <mxPoint x="850" y="301.5" as="sourcePoint" />
            <mxPoint x="500" y="281.5" as="targetPoint" />
          </mxGeometry>
        </mxCell>
        <mxCell id="vPIxwhePFeFq_k7rVSuH-72" value="" style="endArrow=none;html=1;rounded=0;entryX=0.5;entryY=0;entryDx=0;entryDy=0;exitX=0.75;exitY=1;exitDx=0;exitDy=0;strokeColor=#9999ff;" edge="1" parent="1" source="vPIxwhePFeFq_k7rVSuH-76" target="vPIxwhePFeFq_k7rVSuH-68">
          <mxGeometry relative="1" as="geometry">
            <mxPoint x="900" y="301.5" as="sourcePoint" />
            <mxPoint x="510" y="291.5" as="targetPoint" />
          </mxGeometry>
        </mxCell>
        <mxCell id="vPIxwhePFeFq_k7rVSuH-73" value="" style="endArrow=none;html=1;rounded=0;entryX=0.5;entryY=0;entryDx=0;entryDy=0;exitX=0.25;exitY=1;exitDx=0;exitDy=0;strokeColor=#9999ff;" edge="1" parent="1" source="vPIxwhePFeFq_k7rVSuH-76" target="vPIxwhePFeFq_k7rVSuH-69">
          <mxGeometry relative="1" as="geometry">
            <mxPoint x="900" y="321.5" as="sourcePoint" />
            <mxPoint x="935" y="285.5" as="targetPoint" />
          </mxGeometry>
        </mxCell>
        <mxCell id="vPIxwhePFeFq_k7rVSuH-76" value="Delivery info" style="rounded=1;arcSize=10;whiteSpace=wrap;html=1;align=center;strokeColor=none;fillColor=#6666ff;fontColor=#ffffff;" vertex="1" parent="1">
          <mxGeometry x="810" y="330" width="100" height="40" as="geometry" />
        </mxCell>
        <mxCell id="vPIxwhePFeFq_k7rVSuH-77" value="delivered to" style="shape=rhombus;perimeter=rhombusPerimeter;whiteSpace=wrap;html=1;align=center;fillColor=none;strokeColor=#6666ff;fontColor=#6666ff;" vertex="1" parent="1">
          <mxGeometry x="1125" y="326.25" width="95" height="47.5" as="geometry" />
        </mxCell>
        <mxCell id="vPIxwhePFeFq_k7rVSuH-78" value="" style="endArrow=none;html=1;rounded=0;exitX=1;exitY=0.5;exitDx=0;exitDy=0;strokeWidth=2;strokeColor=#6666ff;entryX=0;entryY=0.5;entryDx=0;entryDy=0;" edge="1" parent="1" source="vPIxwhePFeFq_k7rVSuH-77" target="r9IzJmFW5y46hCvMNoL_-93">
          <mxGeometry relative="1" as="geometry">
            <mxPoint x="1180" y="478" as="sourcePoint" />
            <mxPoint x="1411" y="342" as="targetPoint" />
          </mxGeometry>
        </mxCell>
        <mxCell id="vPIxwhePFeFq_k7rVSuH-79" value="N" style="resizable=0;html=1;whiteSpace=wrap;align=right;verticalAlign=bottom;fontColor=#6666ff;" connectable="0" vertex="1" parent="vPIxwhePFeFq_k7rVSuH-78">
          <mxGeometry x="1" relative="1" as="geometry">
            <mxPoint x="-20" as="offset" />
          </mxGeometry>
        </mxCell>
        <mxCell id="vPIxwhePFeFq_k7rVSuH-80" value="" style="endArrow=none;html=1;rounded=0;strokeWidth=2;strokeColor=#6666ff;exitX=0;exitY=0.5;exitDx=0;exitDy=0;entryX=1;entryY=0.5;entryDx=0;entryDy=0;" edge="1" parent="1" source="vPIxwhePFeFq_k7rVSuH-77" target="vPIxwhePFeFq_k7rVSuH-76">
          <mxGeometry relative="1" as="geometry">
            <mxPoint x="1135" y="514" as="sourcePoint" />
            <mxPoint x="918" y="677" as="targetPoint" />
          </mxGeometry>
        </mxCell>
        <mxCell id="vPIxwhePFeFq_k7rVSuH-81" value="1" style="resizable=0;html=1;whiteSpace=wrap;align=right;verticalAlign=bottom;fontColor=#6666ff;" connectable="0" vertex="1" parent="vPIxwhePFeFq_k7rVSuH-80">
          <mxGeometry x="1" relative="1" as="geometry">
            <mxPoint x="10" as="offset" />
          </mxGeometry>
        </mxCell>
        <mxCell id="vPIxwhePFeFq_k7rVSuH-82" value="has info" style="shape=rhombus;perimeter=rhombusPerimeter;whiteSpace=wrap;html=1;align=center;fillColor=none;strokeColor=#6666ff;fontColor=#6666ff;" vertex="1" parent="1">
          <mxGeometry x="575" y="272.5" width="95" height="47.5" as="geometry" />
        </mxCell>
        <mxCell id="vPIxwhePFeFq_k7rVSuH-83" value="" style="endArrow=none;html=1;rounded=0;exitX=1;exitY=0.5;exitDx=0;exitDy=0;strokeWidth=2;strokeColor=#6666ff;entryX=0;entryY=0.5;entryDx=0;entryDy=0;" edge="1" parent="1" source="vPIxwhePFeFq_k7rVSuH-82" target="vPIxwhePFeFq_k7rVSuH-76">
          <mxGeometry relative="1" as="geometry">
            <mxPoint x="1230" y="360" as="sourcePoint" />
            <mxPoint x="1460" y="360" as="targetPoint" />
          </mxGeometry>
        </mxCell>
        <mxCell id="vPIxwhePFeFq_k7rVSuH-84" value="N" style="resizable=0;html=1;whiteSpace=wrap;align=right;verticalAlign=bottom;fontColor=#6666ff;" connectable="0" vertex="1" parent="vPIxwhePFeFq_k7rVSuH-83">
          <mxGeometry x="1" relative="1" as="geometry">
            <mxPoint y="-2" as="offset" />
          </mxGeometry>
        </mxCell>
        <mxCell id="vPIxwhePFeFq_k7rVSuH-85" value="" style="endArrow=none;html=1;rounded=0;strokeWidth=2;strokeColor=#6666ff;exitX=0;exitY=0.5;exitDx=0;exitDy=0;entryX=1;entryY=0.5;entryDx=0;entryDy=0;" edge="1" parent="1" source="vPIxwhePFeFq_k7rVSuH-82" target="r9IzJmFW5y46hCvMNoL_-2">
          <mxGeometry relative="1" as="geometry">
            <mxPoint x="1135" y="360" as="sourcePoint" />
            <mxPoint x="920" y="360" as="targetPoint" />
          </mxGeometry>
        </mxCell>
        <mxCell id="vPIxwhePFeFq_k7rVSuH-86" value="1" style="resizable=0;html=1;whiteSpace=wrap;align=right;verticalAlign=bottom;fontColor=#6666ff;" connectable="0" vertex="1" parent="vPIxwhePFeFq_k7rVSuH-85">
          <mxGeometry x="1" relative="1" as="geometry">
            <mxPoint x="20" y="-2" as="offset" />
          </mxGeometry>
        </mxCell>
        <mxCell id="vPIxwhePFeFq_k7rVSuH-87" value="Order details" style="shape=associativeEntity;whiteSpace=wrap;html=1;align=center;strokeColor=#9999ff;fillColor=#6666ff;fontColor=#f1f3f4;fillStyle=solid;" vertex="1" parent="1">
          <mxGeometry x="397.5" y="1010" width="100" height="40" as="geometry" />
        </mxCell>
        <mxCell id="vPIxwhePFeFq_k7rVSuH-88" value="" style="endArrow=none;html=1;rounded=0;entryX=0.75;entryY=1;entryDx=0;entryDy=0;strokeWidth=2;strokeColor=#6666ff;exitX=0.5;exitY=0;exitDx=0;exitDy=0;" edge="1" parent="1" source="vPIxwhePFeFq_k7rVSuH-87" target="r9IzJmFW5y46hCvMNoL_-2">
          <mxGeometry relative="1" as="geometry">
            <mxPoint x="440" y="790" as="sourcePoint" />
            <mxPoint x="242" y="340" as="targetPoint" />
          </mxGeometry>
        </mxCell>
        <mxCell id="vPIxwhePFeFq_k7rVSuH-89" value="1" style="resizable=0;html=1;whiteSpace=wrap;align=right;verticalAlign=bottom;fontColor=#6666ff;" connectable="0" vertex="1" parent="vPIxwhePFeFq_k7rVSuH-88">
          <mxGeometry x="1" relative="1" as="geometry">
            <mxPoint y="19" as="offset" />
          </mxGeometry>
        </mxCell>
        <mxCell id="vPIxwhePFeFq_k7rVSuH-90" value="N" style="edgeLabel;html=1;align=center;verticalAlign=middle;resizable=0;points=[];fontColor=#6666ff;" connectable="0" vertex="1" parent="vPIxwhePFeFq_k7rVSuH-88">
          <mxGeometry x="-0.8737" y="-2" relative="1" as="geometry">
            <mxPoint x="20" y="36" as="offset" />
          </mxGeometry>
        </mxCell>
        <mxCell id="vPIxwhePFeFq_k7rVSuH-91" value="paid using" style="shape=rhombus;perimeter=rhombusPerimeter;whiteSpace=wrap;html=1;align=center;fillColor=none;strokeColor=#6666ff;fontColor=#6666ff;" vertex="1" parent="1">
          <mxGeometry x="1400" y="647.5" width="95" height="47.5" as="geometry" />
        </mxCell>
        <mxCell id="vPIxwhePFeFq_k7rVSuH-92" value="" style="endArrow=none;html=1;rounded=0;strokeWidth=2;strokeColor=#6666ff;exitX=1;exitY=0.5;exitDx=0;exitDy=0;entryX=0.5;entryY=1;entryDx=0;entryDy=0;" edge="1" parent="1" source="vPIxwhePFeFq_k7rVSuH-91" target="r9IzJmFW5y46hCvMNoL_-93">
          <mxGeometry relative="1" as="geometry">
            <mxPoint x="1135" y="514" as="sourcePoint" />
            <mxPoint x="918" y="677" as="targetPoint" />
          </mxGeometry>
        </mxCell>
        <mxCell id="vPIxwhePFeFq_k7rVSuH-93" value="1" style="resizable=0;html=1;whiteSpace=wrap;align=right;verticalAlign=bottom;fontColor=#6666ff;" connectable="0" vertex="1" parent="vPIxwhePFeFq_k7rVSuH-92">
          <mxGeometry x="1" relative="1" as="geometry">
            <mxPoint x="12" y="16" as="offset" />
          </mxGeometry>
        </mxCell>
        <mxCell id="vPIxwhePFeFq_k7rVSuH-94" value="" style="endArrow=none;html=1;rounded=0;strokeWidth=2;strokeColor=#6666ff;exitX=0;exitY=0.5;exitDx=0;exitDy=0;entryX=1;entryY=0;entryDx=0;entryDy=0;" edge="1" parent="1" source="vPIxwhePFeFq_k7rVSuH-91" target="vPIxwhePFeFq_k7rVSuH-87">
          <mxGeometry relative="1" as="geometry">
            <mxPoint x="1370" y="1110" as="sourcePoint" />
            <mxPoint x="1510" y="380" as="targetPoint" />
          </mxGeometry>
        </mxCell>
        <mxCell id="vPIxwhePFeFq_k7rVSuH-95" value="1" style="resizable=0;html=1;whiteSpace=wrap;align=right;verticalAlign=bottom;fontColor=#6666ff;" connectable="0" vertex="1" parent="vPIxwhePFeFq_k7rVSuH-94">
          <mxGeometry x="1" relative="1" as="geometry">
            <mxPoint x="12" y="16" as="offset" />
          </mxGeometry>
        </mxCell>
        <mxCell id="vPIxwhePFeFq_k7rVSuH-96" value="id" style="ellipse;whiteSpace=wrap;html=1;align=center;fontStyle=4;strokeColor=none;fillColor=#9999ff;fontColor=#FFFFFF;" vertex="1" parent="1">
          <mxGeometry x="242.5" y="1010" width="100" height="40" as="geometry" />
        </mxCell>
        <mxCell id="vPIxwhePFeFq_k7rVSuH-97" value="" style="endArrow=none;html=1;rounded=0;entryX=1;entryY=0.5;entryDx=0;entryDy=0;strokeColor=#9999ff;fontStyle=1;exitX=0;exitY=0.5;exitDx=0;exitDy=0;" edge="1" parent="1" source="vPIxwhePFeFq_k7rVSuH-87" target="vPIxwhePFeFq_k7rVSuH-96">
          <mxGeometry relative="1" as="geometry">
            <mxPoint x="517.5" y="1010" as="sourcePoint" />
            <mxPoint x="657.5" y="1010" as="targetPoint" />
          </mxGeometry>
        </mxCell>
        <mxCell id="vPIxwhePFeFq_k7rVSuH-98" value="Voucher" style="rounded=1;arcSize=10;whiteSpace=wrap;html=1;align=center;strokeColor=none;fillColor=#6666ff;fontColor=#ffffff;" vertex="1" parent="1">
          <mxGeometry x="882.5" y="1010" width="100" height="40" as="geometry" />
        </mxCell>
        <mxCell id="vPIxwhePFeFq_k7rVSuH-99" value="id" style="ellipse;whiteSpace=wrap;html=1;align=center;fontStyle=4;strokeColor=none;fillColor=#9999ff;fontColor=#FFFFFF;" vertex="1" parent="1">
          <mxGeometry x="817.5" y="940" width="100" height="40" as="geometry" />
        </mxCell>
        <mxCell id="vPIxwhePFeFq_k7rVSuH-100" value="min cost" style="ellipse;whiteSpace=wrap;html=1;align=center;fillColor=#9999ff;strokeColor=none;fillStyle=solid;fontColor=#FFFFFF;" vertex="1" parent="1">
          <mxGeometry x="952.5" y="940" width="100" height="40" as="geometry" />
        </mxCell>
        <mxCell id="vPIxwhePFeFq_k7rVSuH-101" value="discount percentage" style="ellipse;whiteSpace=wrap;html=1;align=center;fillColor=#9999ff;strokeColor=none;fillStyle=solid;fontColor=#FFFFFF;" vertex="1" parent="1">
          <mxGeometry x="1037.5" y="1010" width="100" height="40" as="geometry" />
        </mxCell>
        <mxCell id="vPIxwhePFeFq_k7rVSuH-102" value="max discount" style="ellipse;whiteSpace=wrap;html=1;align=center;fillColor=#9999ff;strokeColor=none;fillStyle=solid;fontColor=#FFFFFF;" vertex="1" parent="1">
          <mxGeometry x="952.5" y="1090" width="100" height="40" as="geometry" />
        </mxCell>
        <mxCell id="vPIxwhePFeFq_k7rVSuH-103" value="date" style="ellipse;whiteSpace=wrap;html=1;align=center;fillColor=#9999ff;strokeColor=none;fillStyle=solid;fontColor=#FFFFFF;" vertex="1" parent="1">
          <mxGeometry x="817.5" y="1090" width="100" height="40" as="geometry" />
        </mxCell>
        <mxCell id="vPIxwhePFeFq_k7rVSuH-104" value="" style="endArrow=none;html=1;rounded=0;entryX=0.25;entryY=0;entryDx=0;entryDy=0;strokeColor=#9999ff;fontStyle=1;exitX=0.5;exitY=1;exitDx=0;exitDy=0;" edge="1" parent="1" source="vPIxwhePFeFq_k7rVSuH-99" target="vPIxwhePFeFq_k7rVSuH-98">
          <mxGeometry relative="1" as="geometry">
            <mxPoint x="842.5" y="725" as="sourcePoint" />
            <mxPoint x="842.5" y="645" as="targetPoint" />
          </mxGeometry>
        </mxCell>
        <mxCell id="vPIxwhePFeFq_k7rVSuH-105" value="" style="endArrow=none;html=1;rounded=0;entryX=0.75;entryY=0;entryDx=0;entryDy=0;strokeColor=#9999ff;fontStyle=1;exitX=0.5;exitY=1;exitDx=0;exitDy=0;" edge="1" parent="1" source="vPIxwhePFeFq_k7rVSuH-100" target="vPIxwhePFeFq_k7rVSuH-98">
          <mxGeometry relative="1" as="geometry">
            <mxPoint x="877.5" y="990" as="sourcePoint" />
            <mxPoint x="917.5" y="1020" as="targetPoint" />
          </mxGeometry>
        </mxCell>
        <mxCell id="vPIxwhePFeFq_k7rVSuH-106" value="" style="endArrow=none;html=1;rounded=0;entryX=1;entryY=0.5;entryDx=0;entryDy=0;strokeColor=#9999ff;fontStyle=1;exitX=0;exitY=0.5;exitDx=0;exitDy=0;" edge="1" parent="1" source="vPIxwhePFeFq_k7rVSuH-101" target="vPIxwhePFeFq_k7rVSuH-98">
          <mxGeometry relative="1" as="geometry">
            <mxPoint x="1012.5" y="990" as="sourcePoint" />
            <mxPoint x="967.5" y="1020" as="targetPoint" />
          </mxGeometry>
        </mxCell>
        <mxCell id="vPIxwhePFeFq_k7rVSuH-107" value="" style="endArrow=none;html=1;rounded=0;entryX=0.75;entryY=1;entryDx=0;entryDy=0;strokeColor=#9999ff;fontStyle=1;exitX=0.5;exitY=0;exitDx=0;exitDy=0;" edge="1" parent="1" source="vPIxwhePFeFq_k7rVSuH-102" target="vPIxwhePFeFq_k7rVSuH-98">
          <mxGeometry relative="1" as="geometry">
            <mxPoint x="1047.5" y="1040" as="sourcePoint" />
            <mxPoint x="992.5" y="1040" as="targetPoint" />
          </mxGeometry>
        </mxCell>
        <mxCell id="vPIxwhePFeFq_k7rVSuH-108" value="" style="endArrow=none;html=1;rounded=0;entryX=0.25;entryY=1;entryDx=0;entryDy=0;strokeColor=#9999ff;fontStyle=1;exitX=0.5;exitY=0;exitDx=0;exitDy=0;" edge="1" parent="1" source="vPIxwhePFeFq_k7rVSuH-103" target="vPIxwhePFeFq_k7rVSuH-98">
          <mxGeometry relative="1" as="geometry">
            <mxPoint x="1012.5" y="1100" as="sourcePoint" />
            <mxPoint x="967.5" y="1060" as="targetPoint" />
          </mxGeometry>
        </mxCell>
        <mxCell id="vPIxwhePFeFq_k7rVSuH-109" value="" style="endArrow=none;html=1;rounded=0;entryX=0;entryY=0.5;entryDx=0;entryDy=0;strokeWidth=2;strokeColor=#6666ff;exitX=1;exitY=0.5;exitDx=0;exitDy=0;" edge="1" parent="1" source="vPIxwhePFeFq_k7rVSuH-87" target="vPIxwhePFeFq_k7rVSuH-98">
          <mxGeometry relative="1" as="geometry">
            <mxPoint x="457.5" y="1020" as="sourcePoint" />
            <mxPoint x="227.5" y="310" as="targetPoint" />
          </mxGeometry>
        </mxCell>
        <mxCell id="vPIxwhePFeFq_k7rVSuH-110" value="1" style="resizable=0;html=1;whiteSpace=wrap;align=right;verticalAlign=bottom;fontColor=#6666ff;" connectable="0" vertex="1" parent="vPIxwhePFeFq_k7rVSuH-109">
          <mxGeometry x="1" relative="1" as="geometry">
            <mxPoint y="19" as="offset" />
          </mxGeometry>
        </mxCell>
        <mxCell id="vPIxwhePFeFq_k7rVSuH-111" value="N" style="edgeLabel;html=1;align=center;verticalAlign=middle;resizable=0;points=[];fontColor=#6666ff;" connectable="0" vertex="1" parent="vPIxwhePFeFq_k7rVSuH-109">
          <mxGeometry x="-0.8737" y="-2" relative="1" as="geometry">
            <mxPoint x="-18" y="7" as="offset" />
          </mxGeometry>
        </mxCell>
      </root>
    </mxGraphModel>
  </diagram>
</mxfile>
